<svg id="Layer_1" data-name="Layer 1" xmlns="http://www.w3.org/2000/svg" xmlns:xlink="http://www.w3.org/1999/xlink" viewBox="0 0 243 243"><defs><style>.cls-1{fill:#fff;}.cls-2{fill:url(#linear-gradient);}.cls-3{fill:url(#linear-gradient-2);}.cls-4{fill:url(#linear-gradient-3);}.cls-5{fill:url(#linear-gradient-4);}.cls-6{fill:url(#linear-gradient-5);}</style><linearGradient id="linear-gradient" x1="51.13" y1="121.5" x2="116.7" y2="121.5" gradientUnits="userSpaceOnUse"><stop offset="0" stop-color="#18c5ba"/><stop offset="1" stop-color="#1f8679"/></linearGradient><linearGradient id="linear-gradient-2" x1="130.11" y1="130.02" x2="191.87" y2="130.02" xlink:href="#linear-gradient"/><linearGradient id="linear-gradient-3" x1="65.87" y1="160.3" x2="101.95" y2="160.3" xlink:href="#linear-gradient"/><linearGradient id="linear-gradient-4" x1="65.87" y1="140.4" x2="101.95" y2="140.4" xlink:href="#linear-gradient"/><linearGradient id="linear-gradient-5" x1="65.87" y1="120.51" x2="101.95" y2="120.51" xlink:href="#linear-gradient"/></defs><rect class="cls-1" x="16.5" y="16.53" width="210" height="210" rx="36.4"/><path class="cls-2" d="M116.64,80.13a3.8,3.8,0,0,0-3.75-3.75H101.74V63.85A3.8,3.8,0,0,0,98,60.1H69.83a3.8,3.8,0,0,0-3.75,3.75V76.38H54.93a3.81,3.81,0,0,0-3.75,3.75V167c0,4-.12,8,0,12a1,1,0,0,1,0,.17,3.8,3.8,0,0,0,3.75,3.75h58a3.8,3.8,0,0,0,3.75-3.75V92.33c0-4,.13-8,0-12ZM93.25,175.4H58.68V92.33c0-2.8.11-5.63.1-8.45h11a3.8,3.8,0,0,0,3.75-3.75V67.6H94.24V80.13A3.8,3.8,0,0,0,98,83.88h11.15V167c0,2.8-.11,5.63-.1,8.45Z"/><path class="cls-3" d="M191.69,122.87a3,3,0,0,0-2-1.88,5.89,5.89,0,0,0-1.66-.16H167.61c0-.11.06-.21.1-.32L170.4,113q3.65-10.23,7.29-20.46a5.29,5.29,0,0,0,.32-1.84,3.26,3.26,0,0,0-2.28-2.86l-1.51,0-.13.09-.54.35a6.36,6.36,0,0,0-1.22.93q-19,20.53-37.9,41.08l-3.1,3.37a6.82,6.82,0,0,0-.66.81,3.11,3.11,0,0,0-.39,2.78,3,3,0,0,0,1.94,1.91,5.34,5.34,0,0,0,1.6.19H154.4l-10.13,28.34a3.65,3.65,0,0,0-.07,2.82,3.08,3.08,0,0,0,2.31,1.81,2.92,2.92,0,0,0,.51,0,3.59,3.59,0,0,0,2.64-1.28q15-16.37,30.1-32.69l10.86-11.78a6.66,6.66,0,0,0,.72-.88A3.11,3.11,0,0,0,191.69,122.87Zm-35.43,29.82q2.66-7.44,5.3-14.89a8.3,8.3,0,0,0,.25-.87,3.11,3.11,0,0,0,.09-1.21v0a3.05,3.05,0,0,0-2.72-2.65l-.35,0h-.21c-1.86,0-10.82,0-15.63,0h-2.61l26.45-28.68-1.27,3.56q-2.58,7.2-5.12,14.4a4.85,4.85,0,0,0-.35,2c.17,1.71,1.52,2.77,3.53,2.78h18l-26.43,28.67Z"/><path class="cls-4" d="M98.2,156.55H69.63a3.75,3.75,0,0,0,0,7.5H98.2a3.75,3.75,0,0,0,0-7.5Z"/><path class="cls-5" d="M98.2,136.65H69.63a3.75,3.75,0,0,0,0,7.5H98.2a3.75,3.75,0,1,0,0-7.5Z"/><path class="cls-6" d="M69.63,124.26H98.2a3.75,3.75,0,0,0,0-7.5H69.63a3.75,3.75,0,0,0,0,7.5Z"/></svg>