<?xml version="1.0" encoding="utf-8"?>
<!-- Generator: Adobe Illustrator 26.0.3, SVG Export Plug-In . SVG Version: 6.00 Build 0)  -->
<svg version="1.1" id="Layer_1" xmlns="http://www.w3.org/2000/svg" xmlns:xlink="http://www.w3.org/1999/xlink" x="0px" y="0px"
	 viewBox="0 0 639.2 447.7" style="enable-background:new 0 0 639.2 447.7;" xml:space="preserve">
<path d="M336.9,289.3c-15.2,0-26.6-7.2-31.1-19.4s-1.2-26.1,8.3-34.2c11.5-9.8,31.8-10.5,43.8-1.4c9.2,6.9,13.2,20.2,9.8,33
	c-3,11.3-13.2,19.9-25.6,21.5C340.1,289.1,338.1,289.2,336.9,289.3z M351.8,261.6l1.1-0.4c-1.9-5.8-3.3-11.7-5.8-17.2
	c-2.2-4.9-6.8-7.2-12.3-6.8s-9.2,3.5-11.4,8.5c-3.4,7.7-2.9,15.6-0.3,23.4c2.5,7.5,8.5,11.5,15.4,10.9c6.4-0.6,11.5-5.9,12.8-13.4
	C351.6,265,351.6,263.3,351.8,261.6z"/>
<path d="M409,229.4h21.2c-3.4,8.4-3.4,50.7,0.2,58.7c-5.5,0-10.8,0.2-16-0.2c-1.3-0.1-2.4-2.2-3.1-2.9c-4.5,1.4-9.1,3.7-13.8,4.1
	c-10.2,0.8-17-5.3-17.5-15.5c-0.5-10.6-0.1-21.3-0.3-32c-0.1-4-0.9-8-1.4-12.2H398c-0.6,4.3-1.5,8.4-1.5,12.6
	c-0.2,9.5-0.1,19,0.1,28.5c0.1,5.5,2.8,8.4,7.1,8.5s7.1-2.6,7.2-8.3c0.3-11.3,0.3-22.6,0.1-34C411,234.3,409.8,232,409,229.4z"/>
<path d="M441.5,229.6c10.7,0,21.5-0.4,32.2,0.1c6.7,0.3,11.6,5.4,12.9,11.5c1.4,6.4-1,11.8-7.1,15.7c-1.1,0.7-2.2,1.4-4.2,2.6
	l18.6,27.6c-8.9,4.4-19.6,1.2-24.7-7.3c-3-5-5.5-10.2-8.3-15.3l-1.4,0.1c0.5,7.6,0.9,15.2,1.4,23.1h-19.3
	C444.9,278.6,444.8,236.8,441.5,229.6z M460.4,238.6v19.1c7.1-2.1,10.3-6.8,9.2-12.6C468.7,240.3,465.5,238.1,460.4,238.6
	L460.4,238.6z"/>
<path d="M249.4,288.1c3.6-7.6,3.5-51.7,0.1-58.4c10.5,0,21.1-0.5,31.6,0.2c5.8,0.4,10.1,4.3,11.4,10.4c1.4,6.4-1.3,11-7.3,13.8
	c0.5,0.6,0.7,1,1,1.2c8,3.9,11.1,9.3,9.9,17.5c-1,7.9-7.3,14.1-15.2,14.9c-5.8,0.6-11.6,0.4-17.4,0.4
	C258.8,288.2,254.2,288.1,249.4,288.1z M268,260.2c0,4.7-0.2,9,0.1,13.3c0.2,2,1.6,5.6,2.1,5.6c2.7-0.3,6.2-0.8,7.8-2.6
	c3-3.4,3.1-8.1,1-12.2S273,259.5,268,260.2z M268,245c-0.1,0.8-0.1,1.6,0,2.5c0.3,1.5,0.8,3,1.2,4.5c1.8-0.6,4.3-0.6,5.2-1.9
	c1.5-1.9,2.2-4.3,2.2-6.7c0-3-2.4-5.4-5.4-5.5c-0.2,0-0.4,0-0.5,0c-4.2,0.1-2.4,3.5-2.8,5.6C267.9,244,267.9,244.5,268,245z"/>
<path d="M555.6,289.8c-8.4-1.3-15.9-5.7-21-12.5c-5.7-7.4-11.2-14.9-16.9-22.3c-0.7-0.9-1.4-1.6-2.3-2.6
	c-1.9,10.4-0.8,28.6,2.3,35.4h-14.1c2.2-19.5,3.7-38.6-1.2-58.5c4.4,0,9.9-0.2,15.4,0.2c1.4,0.1,2.8,2.2,3.8,3.6
	c7.8,10.3,15.6,20.7,24.1,30.9c-0.6-11.5,2.8-23.1-2.3-34.5h13.8c-0.6,5.5-1.5,10.8-1.6,16.1c-0.2,13-0.1,26-0.1,39V289.8z"/>
<path d="M153.7,229.4c0.3-0.1,0.5-0.2,0.8-0.2c6,0,13.3-2,17.6,0.8s5.2,10.2,7.3,15.7c3.4,8.9,6.4,17.9,9.8,26.7
	c2,5.2,4.5,10.2,6.9,15.4h-22.6c1.9-4.6,0.9-16.3-2-16.8c-5.7-1-11.4-0.9-17.1,0.2c-3.2,0.7-4.1,12-1.9,16.4h-16.1
	C147.2,267.5,156.8,235.6,153.7,229.4z M163.3,246.2l-1.2,0.2c-1.6,4.9-3.2,9.8-5,15h11.5C166.8,256,165.1,251.1,163.3,246.2
	L163.3,246.2z"/>
<path d="M86.2,274.8c-1.6,4.3-2.6,7.4-4,10.4c-0.4,1.1-1.3,1.9-2.4,2.3c-12.6,2.5-25.2,3.9-36.6-4c-10.5-7.4-15-17.7-12.7-30.4
	c2.2-12.5,9.7-20.9,22.2-23.4c6.9-1.4,14.2-0.8,21.3-1.1c2.5-0.1,4,1.1,4,3.9c0,2.6,0.3,5.3,0.5,8.8c-2.2-1-3.9-1.7-5.7-2.4
	c-12.6-5.1-22.5,0.6-24.2,14c-0.2,2.1-0.3,4.3-0.2,6.5c0.8,16.2,12.2,24.2,27.8,19.3C79.3,277.7,82.1,276.4,86.2,274.8z"/>
<path d="M602.6,239.6l-14.6-2.1c0,4.8-0.2,8.6,0.1,12.4c0.1,0.9,1.8,2.3,2.8,2.4c2.9,0.2,5.8,0.3,8.8,0.1v10.1l-11.6-1.7
	c0,5.7-0.2,10.7,0.2,15.6c0.1,1,2.2,2.3,3.5,2.5c6.3,1,12.6,0.9,18.8-4.1c-1.1,4.4-1.7,7.8-2.8,11c-0.5,1.1-1.5,2-2.7,2.2
	c-11.9,0.1-23.9,0.1-34.7,0.1c1.6-19.5,1.6-39.2,0-58.7h32.2L602.6,239.6z"/>
<path d="M241.7,229.4c-4.4,8.9-8.2,17-12.4,24.9c-5.9,11-4.1,22-1.1,33.5h-20.7c2.3-12.1,4.4-23.9-3-35.4
	c-4.6-7.2-8.4-15.1-12.8-23.2c5.9,0,11.9-0.2,17.9,0.2c1.1,0.1,2.4,2,3.1,3.4c2.9,5.4,5.5,11,8.9,17.8c2.4-7.8,9.3-12.7,5.4-21.2
	L241.7,229.4z"/>
<path d="M131.6,277.7c-0.5,2.6-1.2,5.1-2.1,7.6c-0.5,1.2-2.2,2.6-3.4,2.6c-11.3,0.2-22.6,0.1-32.8,0.1c1.7-19.5,1.8-39.1,0.1-58.6
	H112c-0.4,7.1-0.9,14.2-1.1,21.3c-0.2,7.8,0.1,15.7-0.1,23.5c-0.1,3,1.1,4.6,3.9,4.5C120.2,278.7,125.7,278.1,131.6,277.7z"/>
<path d="M358.7,78.2c2.9,6.8,5.2,12.4,7.9,18.6c2-11.6,3.5-22.5,5.7-33.3s5.6-21.2,13-31.4c2.7,11.3,5.1,21.6,7.5,31.9
	c4.7-14.5,7.2-29.7,18.4-41.6v39.2l1.5,0.5c8.2-16.9,18.9-31.9,33.1-44.6c-1.7,8.8-3.6,17.5-5.1,26.3
	c-7.4,44.9-14.4,89.8-22.1,134.6c-2.5,14.2-6.6,28.2-10,42.2c-1,4-3.4,4.9-6.4,3.7c4-15.7,7.8-31.2,11.7-46.7l-1.6-0.5
	c-2.2,4.7-4.2,9.6-6.7,14.2c-5.5,9.9-11.3,19.6-16.9,29.5c-1.8,3.2-4.2,4.6-8.2,3.5c-6.3-34.7-16-69.2-14.1-105.2
	c0.5-10.3-5.2-18.1-8.2-27.1l-2-0.1c-1.6,8-3.8,16-4.7,24.1c-3.2,28.7,1.3,56.8,8.3,84.6c2,7.7,4.1,15.4,6.3,23.3
	c-3.7,1.7-5.9,0.9-6.8-3.2c-3.9-17.5-7.7-35.1-12.1-52.6c-1.6-6.3-4.7-12.2-7.7-18.1c-0.5,25.4,5.4,49.7,10.4,74.6
	c-3.9,0.5-6-0.4-6.8-4.5c-1.8-10-3.2-20.2-6.1-29.8c-1.7-5.6-6.1-10.4-9.3-15.5l-1.3,0.4c-0.2,1-0.2,2-0.2,3
	c1,13.8,1.9,27.6,3.1,41.4c0.4,4-0.7,5.6-5.7,5.1c1.7-12.7-5.1-21.8-13.6-30.9c-1.2,10.7-0.6,21.6,1.9,32.1c1.2,5,1.1,5-3.8,8.7
	c-1.1-5.1-2.5-9.8-3.1-14.6c-0.8-6.6-1.8-13.3-1.3-19.9c1.3-19.4-3.8-37.3-11.3-54.7c-5.3-12.2-10.8-24.4-20.1-34.3
	c-1-1.1-1.7-2.4-3.6-3.1c16.8,39.2,27.5,79.2,23.8,122l-1.4,0.8l-5-7.7l1-1.3c-23.7-2-47-8.8-72-4.3l9.9,6.4
	c-8.5,2.9-13.2,0.5-24.8-12.5h19.2l0.3-1.4c-11.2-4.4-22.3-8.8-32.1-17.6l18.7-3.1l-30.5-18.4l0.5-1.8l15.2-3.1
	c-11.2-6.7-23.3-10.8-30.5-22.8l19.4-2.1c-17.4-8-34-14.8-45.2-31.2l21.8-1.6c-13.7-7.6-27.7-13.3-32-30.7l28.1,1.6l-30.6-37.2
	l1.1-1.2c20.6,2,38.5,11.7,58.5,20.4c-12-15.5-22.1-30.4-26.6-49.7c4.1,2.3,7.4,3.9,10.4,6c37.8,26.9,74.7,54.9,108,87.2
	c15.4,15,22.7,34.7,29.6,54.3c2.4,6.7,3.4,13.9,5.1,20.8c0.1,1,0.4,1.9,0.9,2.8c3.5,5,7.2,9.9,11.8,16.1v-38.2l1.2-0.3l12.3,15.2
	c-0.8-15.8-3.5-30.6,2-46.1l7.5,16.2C345.1,122.4,343.9,99.3,358.7,78.2z M137.2,48.3l-1,1.5c8.9,11.1,17.2,22.6,30.5,29.5
	c33.1,17.3,65.9,34.9,98.9,52.4c1.8,1,3.7,1.8,6.8,3.2c-1.5-4-2.8-6.7-3.6-9.5c-2.4-8.5-7.6-14.4-15.4-18.5
	c-27.8-14.8-55.3-30.1-83.2-44.6C159.6,56.8,148.2,52.9,137.2,48.3z M385.3,215.8c3.1-5.1,6-9.2,8-13.6c1.3-2.6,1.7-5.5,1.3-8.3
	c-7.2-34.5-10.4-69.2-4.8-104.3c2.3-14.3-4.5-26.8-6.9-40.2C365.1,104.8,371.6,159.8,385.3,215.8z M134.5,83.7l-1,1.7
	c4,3.3,7.7,7.3,12.1,9.8c8.3,4.5,17.2,7.9,25.8,12c34.3,16,68.5,32,102.7,48l5.8,2.7c-1.4-4.4-2.1-7.9-3.6-10.9
	c-1.1-2.3-2.8-4.3-4.9-5.6C237.4,123.1,203.2,105,169,87.1c-1.2-0.8-2.6-1.4-4.1-1.7C154.8,84.7,144.6,84.2,134.5,83.7z
	 M283.7,174.3c-1.3-4.5-0.4-8.5-4.9-10.6c-33.1-15.6-66.3-31.1-99.2-47.3c-10.7-5.3-21-1.9-31.8-1.4c1.4,1.9,3.1,3.5,5.1,4.7
	c9,4.9,17.9,10.4,27.4,14.3c19.2,8,38.9,15,58.3,22.4C253.3,162.2,267.9,168.1,283.7,174.3z M406.5,45.2l-1.5-0.1
	c-13.4,32-16.2,122.8-4.2,143.9c3.3-8.9,8.5-16.5,8.1-26.6c-1.3-30.3-1.7-60.6-2.3-90.9C406.3,62.8,406.5,54,406.5,45.2z
	 M173.8,148.2c34.4,21.5,73.7,29.5,111.6,42c1-6.4-0.8-9.6-6.5-11.8c-24.9-9.4-49.9-18.8-74.4-29.4
	C194.1,144.7,184.3,146.8,173.8,148.2L173.8,148.2z M167,24.9l-0.9,0.7c0.9,2.2,2,4.4,3.3,6.4c7.8,11,15.7,21.9,23.8,32.6
	c1.8,2.4,4.6,4.2,7.3,5.8c16.5,9.3,33.1,18.5,49.7,27.8c3.4,1.9,6.6,4.1,9.9,6.1l1.1-1.2c-2.6-3.3-4.6-7.2-7.8-9.8
	C227.8,72.5,202,52,176.2,31.5C173.3,29.1,170.1,27.1,167,24.9z M414.1,151.9l2.2,0.4l19.7-115.4c-13.2,17.2-24.9,34.7-23.5,57.8
	C413.7,113.7,413.6,132.9,414.1,151.9z M286.9,204.5c1.2-6.2-1.1-8.4-6.5-10c-25.1-7.6-50-16-75.2-23.5c-4.5-1.4-9.9,0.2-15,0.4v1.8
	C220,190.9,251.9,202.1,286.9,204.5z M202.7,196.1c27.3,14.1,55.9,16.3,84.3,19.8c0.4-5.4,0.4-5.4-4.1-5.9
	c-19.8-1.9-39.2-5.8-57.6-13.5C218,193.4,211.4,193.8,202.7,196.1L202.7,196.1z"/>
<path d="M262.1,357c1.2,1.6,3.4,3.2,3.4,4.8c-0.8,17.5-2,34.9-3.2,53.2l-22.9-4.7c-0.8,2.9-1.5,5.4-2.4,8.6
	c-4.6-1.1-9.1-2.1-13.5-3.4c-3-0.9-5-1.1-6,2.7c-0.3,1.1-2.2,2.5-3.5,2.7c-7.4,1.1-14.9,2.1-22.3,2.8c-1.7-0.1-3.2-0.9-4.1-2.3
	c-3-5.2-5.6-10.6-7.8-16.3c-0.7-2,0.9-5,1.6-8.3l-17.4-10.6l12.2-12.8l-16.5-14.9c7.6-5.9,14.9-11.6,22.2-17.3
	c19.7-15.1,39.4-30.2,59-45.5c3.8-3,7.6-3.7,13.2-2.8l-85.5,66l10.7,9.5l27.8-25.1l3.3,2.9l-37.3,38.8c3.9,2.4,7.4,4.9,11.2,6.6
	c1,0.4,3.5-1.1,4.4-2.3c15.4-19.5,30.7-39,46-58.6c1-1.3,2.1-2.5,3.6-4.2c1.5,6.9,3.2,12.6,1,19.4c-6.4,19.5-11.9,39.2-17.8,58.8
	c-0.3,1.1-0.6,2.2-1,3.9l12.2,3.3c3.7-15,7.3-29.7,11-44.8l5.5,1.1c-2.9,12.1-5.7,23.8-8.6,36.2L257,408c1.1-17.1,2.1-33.6,3.2-50.1
	L262.1,357z M234.4,342.3l-0.9-0.5c-15.7,20-31.3,40-46.9,60c-0.7,0.9-0.6,2.8-0.2,4c4.8,12.2,4.8,11.7,17.8,10.7
	c6.6-0.5,9.2-3.1,10.9-9.3C221.2,385.5,228,363.9,234.4,342.3z"/>
<path d="M337.9,294.5c19.1,0.4,31.4,12.7,31,31s-14.4,30.9-33.8,30.3c-18.8-0.5-31.5-13.2-31.2-31.2S318.4,294.1,337.9,294.5z
	 M352.8,326.7c-1.8-5.2-3.1-10.9-5.5-16c-2.3-4.8-6.7-7.2-12.3-6.9s-9.3,3.5-11.4,8.4c-3.9,8.9-3.3,19,1.6,27.4
	c5.5,9.7,18.7,9.5,23.9-0.3C351,335.7,351.4,331.4,352.8,326.7L352.8,326.7z"/>
<path d="M284.9,391.7l-3.5-4.5l18.3-13.2l-2.9-4.4l-13.6,9.5l-3.4-4.4l13.2-9.8l-3.1-5l0.6-1.4c2.2,0.7,4.4,1.3,6.6,1.7
	c1.4,0.2,2.9-0.3,5.1-0.5l2.7,3.3l-3,3.2c0.1,0.4,0.1,0.8,0.3,1c8.8,9.3,11.6,20.5,11.5,33c-0.1,8.8,2,10.8,11.6,12.7
	c-2.7-5.8-3.6-11.8,1.3-16.1c3.5-3,8-5.8,12.4-6.4c11.3-1.6,19,7.4,19.4,21.6c5.1-3,6.3-10.2,2.5-15.8c-3-4.6-7.8-7.6-13.2-8.2
	c-6.1-0.6-12.2-0.8-18.4-0.6c-4.4,0.1-4.4,0.4-4.5-5.1l9.1-1.4l-4.6-20.5c3.9-1,6.1-0.3,6.8,3.7s2,8.1,2.7,12.2
	c0.6,3.4,2.2,4.6,5.7,5.5c6,1.5,12.2,3.6,17.2,7c6.9,4.7,8.7,13,6.1,20.5c-2.4,7-7.5,10.8-15,11c-3,0.2-6.1-0.1-9-0.9
	c0.9-0.6,1.7-1.2,2.7-1.7c5.9-3.1,7-5.4,5.8-12c-0.8-4.7-5.1-8.8-10.2-9.7c-4.6-0.8-10.4,1.7-12.2,6c-0.7,2-0.7,4.1,0,6.1
	c1.5,3.8,3.6,7.4,6,12.2c-9.2-0.6-17.6-1-24-7.4c-2-2-3-5.5-3.5-8.5c-0.8-5.1-0.5-10.3-1.2-15.4c-0.5-3.4-1.8-6.6-3.1-10.9
	L284.9,391.7z"/>
<path d="M299.5,341.4c-1.5,4.1-2.5,7.4-3.9,10.6c-0.5,1-1.4,1.8-2.5,2.1c-13.1,2.6-26.2,3.9-37.8-5.1c-9.9-7.7-13.6-17.9-11.2-30.1
	s10-20.3,22.3-22.8c6.4-1.3,13.2-0.8,19.8-1.1c3.7-0.2,5.5,1.4,5.2,5.4c0,2.3,0.1,4.6,0.3,6.9c-4.5-1.2-8.5-2.9-12.7-3.3
	c-8.7-0.9-14.2,3.3-16.4,11.9c-0.6,2.4-0.9,4.9-1,7.4c-0.5,18.4,12.4,27.7,29.7,21.5C293.9,343.8,296.3,342.7,299.5,341.4z"/>
<path d="M366.9,296.7c-0.3,2.9-0.5,4-0.6,5.4c-6.5-5.4-6.5-5.4-6.2-12.2l14.8,4.3c-2.4-4.3-3.9-7.6-5.9-10.6
	c-2.4-3.5-2.2-6.3,1.2-9.4c0.7,1.1,1.5,2.1,2.1,3.2c10.1,18.4,20.1,36.8,30.1,55.2c4.7,8.7,8.7,17.6,6.5,28
	c-0.5,2.1,1.3,4.7,1.9,7.1c4.7,17.5-5.3,29.3-24.2,27.6c4.3-5.8,8.4-11.9,3.9-18.6c-1.7-2.6-5.8-3.6-9.7-5.9
	c-0.6,5.1-1,8.6-1.4,12.4c-4.8-4.7-9.2-9.2-13.8-13.4s-9.4-7.9-14.2-11.9c2.8-2.9,5.8-3.1,9.1-0.1c4.4,4,8.9,7.9,12.3,10.8
	c3-1,5.2-2.2,7.4-2.3c2.4-0.1,4.9,0.8,7.3,1.4c8.6,2.1,16.4-3.2,16.1-12c-0.3-5.6-1.7-11.1-4.2-16.2c-5.8-12.2-12.3-24-19.5-35.4
	C377.6,300.7,372,299.5,366.9,296.7z M398.3,387.9c8.1-2,10.1-11.9,6.3-18.8l-8.2,4.2C397,378.3,397.7,382.9,398.3,387.9z"/>
<path d="M392.9,347.3c0,4.7-3.8,8.6-8.6,8.5c-4.7,0-8.6-3.8-8.5-8.6c0-4.7,3.8-8.6,8.6-8.5c0,0,0,0,0,0
	C389.1,338.8,392.9,342.6,392.9,347.3z"/>
<path d="M336.3,237.2c9,0,15.5,15.5,15.5,24.4s10,1.8,10,1.8l-5.9-18.9l-7.7-7.4l-8-3.9L336.3,237.2z"/>
<path d="M453.7,37.9h-2.5V37h6v0.9h-2.5v7.2h-1L453.7,37.9z"/>
<path d="M465,41.6c-0.1-1.1-0.1-2.5-0.1-3.5l0,0c-0.3,1-0.6,2-1,3.1l-1.4,3.9h-0.8l-1.3-3.8c-0.4-1.1-0.7-2.2-0.9-3.1l0,0
	c0,1-0.1,2.4-0.2,3.6l-0.2,3.5h-1l0.6-8.1h1.3l1.4,3.9c0.3,1,0.6,1.9,0.8,2.7l0,0c0.2-0.8,0.5-1.7,0.9-2.7l1.4-3.9h1.3l0.5,8.1h-1
	L465,41.6z"/>
</svg>
