<svg id="Layer_1" data-name="Layer 1" xmlns="http://www.w3.org/2000/svg" xmlns:xlink="http://www.w3.org/1999/xlink" viewBox="0 0 243 243"><defs><style>.cls-1{fill:url(#linear-gradient);}.cls-2{fill:#fff;}</style><linearGradient id="linear-gradient" x1="16.5" y1="121.55" x2="226.5" y2="121.55" gradientUnits="userSpaceOnUse"><stop offset="0" stop-color="#18c5ba"/><stop offset="1" stop-color="#1f8679"/></linearGradient></defs><rect class="cls-1" x="16.5" y="16.55" width="210" height="210" rx="36.4"/><path class="cls-2" d="M164.22,62.67a29.39,29.39,0,0,0-19.9,55.3,27.35,27.35,0,0,0,10.2,1.7,34.3,34.3,0,0,0,5.6-.5c13.3-2.6,23.4-14.9,23.6-28.7v-.2A30.09,30.09,0,0,0,164.22,62.67Zm12.5,27.7a22.52,22.52,0,0,1-14.5,21,22.92,22.92,0,0,1-25.3-6.8,22.5,22.5,0,0,1,3.2-31.6,21.82,21.82,0,0,1,14.2-5,32.7,32.7,0,0,1,4.4.4A22.84,22.84,0,0,1,176.72,90.37Z"/><path class="cls-2" d="M163.62,79.17a3.19,3.19,0,0,0-2.4,1.1l-11.6,12.8-2.3-2.5a3.49,3.49,0,0,0-2.4-1,3.7,3.7,0,0,0-2.6,1,3.57,3.57,0,0,0,0,4.9l4.9,5.2a3.47,3.47,0,0,0,2.5,1h0a3.1,3.1,0,0,0,2.4-1l14-15.5a3.47,3.47,0,0,0-.1-4.9,3.19,3.19,0,0,0-2.4-1.1Z"/><path class="cls-2" d="M117.32,91.07l-22.6-21.9-3.2-3.1a3.87,3.87,0,0,0-5.3,0L68.82,83c-2.8,2.7-5.7,5.3-8.4,8.1-1.5,1.6-1.1,4.3-1.1,6.4v61c0,6.5-.1,13,0,19.5v.3a3.85,3.85,0,0,0,3.7,3.8h51.6a3.86,3.86,0,0,0,3.8-3.8V93.77a2.77,2.77,0,0,0-.1-.9A4,4,0,0,0,117.32,91.07ZM85.72,77l3.1-3,20,19.4,2.1,2v65.4H66.82V95.37Zm11.5,97.5H66.82v-6.2h44.1v6.2Z"/><path class="cls-2" d="M77.92,149.37h21.9c3.9,0,3.9-6,0-6H77.92C74.12,143.37,74,149.37,77.92,149.37Z"/><path class="cls-2" d="M77.92,136.67h21.9c3.9,0,3.9-6,0-6H77.92C74.12,130.67,74,136.67,77.92,136.67Z"/><path class="cls-2" d="M77.92,124.07h21.9c3.9,0,3.9-6,0-6H77.92C74.12,118.07,74,124.07,77.92,124.07Z"/><path class="cls-2" d="M86.22,98.07c0,.1,0,.2.1.2h0C86.22,98.07,86.22,98,86.22,98.07Z"/><path class="cls-2" d="M86.62,98.77h0l.2.2Z"/><path class="cls-2" d="M87.82,99.67h0a.37.37,0,0,0-.3-.1Z"/><path class="cls-2" d="M90.42,99.47l.2-.1h.1C90.42,99.37,90.32,99.47,90.42,99.47Z"/><path class="cls-2" d="M86.82,95.17l-.2.2h0A.22.22,0,0,0,86.82,95.17Z"/><path class="cls-2" d="M90.72,105.67a8.77,8.77,0,0,0,7-8.6,9.09,9.09,0,0,0-5.9-8.3,8.74,8.74,0,0,0-9.5,2.5,8.83,8.83,0,0,0,.8,12.4,8.49,8.49,0,0,0,7.6,2Zm1-8.3v0Zm-3.8-2.9-.3.1a.37.37,0,0,1,.3-.1Zm-1.8,2c0-.2.1-.3.1-.5s.1-.2.2-.3l.1-.2-.1.1.1-.1.1-.1c.1-.2.2-.2.2-.1.1-.1.1-.2.2-.2l.1-.1c.1-.1.3-.2.4-.3h0l.4-.1.4-.1h.8l.7.2c.1.1.2.1.3.2l.3.2.5.5c.1.1.1.2.2.3s.1.2.2.3l.2.7v.3h0v.6h0c0,.2-.1.3-.1.4v-.1c-.1.2-.3.5-.4.7l-.2.2-.2.2h0l.2-.1-.2.1-.2.1-.2.2-.2.1-.6.2h-.8l-.4-.1-.2-.1.1.1-.1-.1h-.2c-.2,0-.2-.1-.1-.1-.1,0-.2-.1-.3-.2l-.1-.1a1.38,1.38,0,0,1-.3-.4c.1.1,0,.1-.1,0l-.1-.2-.1-.1.1.1-.1-.2-.1-.2v.2c0-.1-.1-.1-.1-.2a.35.35,0,0,0-.1-.2c0-.1-.1-.2-.1-.3v-.9s-.1-.4-.2-.3Z"/><path class="cls-2" d="M86.12,96.77a.44.44,0,0,1,.1-.3v.2l-.1.1c.1.1.1,0,0,0Z"/></svg>