<?xml version="1.0" encoding="utf-8"?>
<!-- Generator: Adobe Illustrator 26.0.3, SVG Export Plug-In . SVG Version: 6.00 Build 0)  -->
<svg version="1.1" id="Layer_1" xmlns="http://www.w3.org/2000/svg" xmlns:xlink="http://www.w3.org/1999/xlink" x="0px" y="0px"
	 viewBox="0 0 243 243" style="enable-background:new 0 0 243 243;" xml:space="preserve">
<style type="text/css">
	.st0{fill:url(#SVGID_1_);}
	.st1{fill:#FFFFFF;}
</style>
<linearGradient id="SVGID_1_" gradientUnits="userSpaceOnUse" x1="16.5" y1="122.45" x2="226.5" y2="122.45" gradientTransform="matrix(1 0 0 -1 0 244)">
	<stop  offset="0" style="stop-color:#18C5BA"/>
	<stop  offset="1" style="stop-color:#1F8679"/>
</linearGradient>
<path class="st0" d="M52.9,16.5h137.2c20.1,0,36.4,16.3,36.4,36.4v137.2c0,20.1-16.3,36.4-36.4,36.4H52.9
	c-20.1,0-36.4-16.3-36.4-36.4V53C16.5,32.8,32.8,16.5,52.9,16.5z"/>
<path class="st1" d="M109.1,122.4c4.9,0.2,9.5-2,12.4-6c3-4.1,2.4-9.3,2.4-14.1v-2.4l14.5-10.7l0.2-0.2c0.5-0.3,0.8-0.7,1.1-1.2
	c0.7-1.2,0.7-2.6,0-3.8c-0.3-0.5-0.7-0.9-1.1-1.2l-0.2-0.2L124,72.1c0-2.8,0-5.5,0-8.3c0.1-7.2-5.3-13.3-12.5-14.1
	c-1.9-0.1-3.8-0.2-5.7-0.1H69c-2.3-0.1-4.6,0-6.9,0.3c-6.5,1.2-10.9,7.3-11,13.7s0,12.7,0,19v23.7c0,3.4,0.2,6.8,2.2,9.8
	c2.8,4.1,7.5,6.5,12.5,6.3L109.1,122.4L109.1,122.4z M114,58.4C114.2,58.5,114.1,58.5,114,58.4z M59,111.1
	C59.1,111.2,59.1,111.3,59,111.1z M67.2,114.9c-0.8,0-1.6,0-2.3,0H64l-0.3-0.1l-0.7-0.2c-0.2-0.1-0.4-0.1-0.6-0.2h0
	c0,0-0.1,0-0.1-0.1l-1.1-0.7l-0.1-0.1l-0.4-0.4c-0.3-0.3-0.6-0.6-0.8-0.9l-0.1-0.1c-0.2-0.3-0.3-0.6-0.5-0.8s-0.2-0.3-0.3-0.5v-0.1
	c-0.1-0.4-0.2-0.9-0.3-1.3c0-0.1,0-0.1,0-0.2v-0.5c0-0.1,0-0.2,0-0.4V63.4c0-0.2,0-0.4,0-0.5s0-0.2,0-0.4l0.1-0.3
	c0.1-0.4,0.2-0.9,0.4-1.3l0,0c0.1-0.2,0.2-0.5,0.4-0.7s0.5-0.7,0.5-0.7c0.2-0.3,0.5-0.5,0.7-0.8l0.4-0.3l0.1-0.1
	c0.4-0.2,0.8-0.5,1.2-0.7c0,0,0.7-0.3,0.9-0.3s0.9-0.2,0.9-0.2l0.8,0c2.6,0,5.2,0,7.8,0h30.4c2.3,0,4.6,0,6.8,0c0.2,0,1,0.1,0.9,0.1
	c0.3,0.1,0.6,0.1,0.9,0.2l0.6,0.2l0,0c0.4,0.2,0.8,0.5,1.3,0.7h0.1c0.2,0.1,0.3,0.2,0.4,0.4c0.3,0.2,0.5,0.5,0.7,0.8
	c0,0.1,0.4,0.6,0.5,0.7s0.2,0.4,0.3,0.6l0.1,0.1c0,0,0,0.1,0,0.2c0.1,0.4,0.2,0.8,0.3,1.3c0,0,0,0.1,0,0.2s0,0.3,0,0.5s0,0.5,0,0.8
	c0,1,0,2,0,3c0,2.3,0,4.5,0,6.8s1.8,3.4,3.4,4.7l10.4,7.7l-4.9,3.6l-5.6,4.1l-1.3,1c-1.2,0.8-2,2.2-2,3.7c-0.1,2.3,0,4.6,0,7
	c0,1,0,1.9,0,2.9c0,0.3,0,0.6,0,0.8c0,0,0,0.2,0,0.3s-0.1,0.3-0.1,0.3c-0.1,0.4-0.2,0.8-0.4,1.2c-0.1,0.1-0.3,0.6-0.4,0.8
	s-0.5,0.7-0.5,0.7c-0.2,0.3-0.5,0.5-0.7,0.8l-0.3,0.2c-0.2,0.1-0.3,0.2-0.5,0.4c-0.3,0.2-0.6,0.4-0.9,0.5c-0.1,0-0.7,0.3-0.9,0.3
	l-0.8,0.2H110c-0.7,0-1.3,0-2,0L67.2,114.9L67.2,114.9z"/>
<path class="st1" d="M182.2,121.3c-1.9-0.5-3.9-0.7-5.9-0.6h-36.6c-4.8,0-10.1-0.6-14.3,2.2c-2.7,1.8-4.8,4.5-5.7,7.6
	c-0.5,1.7-0.7,3.5-0.6,5.3v7.3l-14.5,10.7c-1.8,1.1-2.3,3.5-1.2,5.3c0.3,0.5,0.7,0.9,1.2,1.2l14.5,10.7v4.2c-0.1,2.5,0,5,0.3,7.4
	c1,4.6,4.3,8.4,8.8,10c1.8,0.6,3.7,0.9,5.6,0.9H178c4,0,7.8-1.7,10.4-4.7c2.3-2.6,3.5-5.9,3.5-9.4v-44.9
	C191.9,128.5,188,123.2,182.2,121.3z M184.2,181.5c-0.1,0.2-0.1,0.4-0.2,0.7l-0.1,0.1c-0.2,0.4-0.5,0.8-0.8,1.2
	c-0.1,0.1-0.2,0.2-0.2,0.3s-0.4,0.4-0.6,0.6l-0.3,0.3c0-0.1-0.5,0.4-0.6,0.4s-1,0.5-0.9,0.5c-0.5,0.2-0.9,0.3-1.4,0.4H179
	c-0.3,0-0.6,0-0.9,0.1H178c-9.8,0.1-19.7,0-29.5,0H133h-0.8H132l-0.2-0.1l-0.6-0.1c-0.3-0.1-0.5-0.2-0.8-0.2l-0.5-0.2l-0.6-0.3
	l-0.4-0.3l-0.4-0.3c-0.2-0.1-0.3-0.3-0.5-0.4c0,0-0.2-0.2-0.3-0.4l-0.3-0.4c-0.1-0.2-0.2-0.4-0.3-0.6c-0.1-0.1-0.2-0.3-0.2-0.5
	c-0.2-0.5-0.3-1-0.4-1.4c0-0.1,0-0.1,0-0.2v-0.2c0-0.2,0-0.5,0-0.7s0-0.5,0-0.7v-8.6c0-1.8-0.3-3.2-1.9-4.4c-0.5-0.4-1-0.7-1.5-1.1
	l-10.4-7.7l11.2-8.3l0.8-0.6c1.2-0.8,1.9-2.1,1.9-3.6c0-1.8,0-3.5,0-5.3c0-1.6,0-3.2,0-4.8c0-0.3,0-0.6,0-0.9c0,0,0.1-0.6,0.1-0.8
	s0.2-0.6,0.3-0.9c0-0.1,0.2-0.4,0.2-0.5c0.2-0.3,0.4-0.6,0.6-1l0.2-0.2c0.3-0.3,0.6-0.6,0.9-0.9c0.1-0.1,0.2-0.1,0.3-0.2l0.8-0.5
	l0.4-0.2h0.1c0.4-0.1,0.7-0.2,1.1-0.3l0.4-0.1h0.1h0.7H177c0.6,0,1.1,0,1.7,0h0.1l0.4,0.1c0.3,0.1,0.6,0.2,1,0.3l0.4,0.1h0.1l1,0.6
	c0.1,0.1,0.2,0.1,0.3,0.2c0.3,0.2,0.6,0.5,0.8,0.8c0.1,0.1,0.3,0.3,0.4,0.4c0.2,0.3,0.4,0.6,0.6,0.9c0.1,0.1,0.2,0.4,0.2,0.5
	c0.1,0.2,0.2,0.5,0.2,0.7s0.1,0.7,0.2,0.9c0,0,0,0.1,0,0.1v0.7v45.1v0.7v0.1c0,0,0,0,0,0.1C184.3,180.9,184.3,181.2,184.2,181.5
	L184.2,181.5z"/>
<path class="st1" d="M151.4,89.7h13.3v19.5c0,2.1,1.7,3.8,3.8,3.8c2.1,0,3.8-1.7,3.8-3.8l0,0V86c0-2.1-1.7-3.7-3.8-3.8h-17
	c-2.1,0-3.8,1.7-3.8,3.8S149.4,89.7,151.4,89.7L151.4,89.7z"/>
<path class="st1" d="M92,153.3H78.7v-19.5c0-2.1-1.7-3.8-3.8-3.8s-3.8,1.7-3.8,3.8v23.2c0,2.1,1.7,3.7,3.8,3.8H92
	c2.1,0,3.8-1.7,3.8-3.8S94.1,153.3,92,153.3L92,153.3z"/>
<path class="st1" d="M164.1,158.8H162V153c0-1.3-1-2.3-2.3-2.3c-1.3,0-2.3,1-2.3,2.3v8.1c0,0.2,0,0.4,0.1,0.6c0.1,0.4,0.3,0.7,0.6,1
	c0.1,0.1,0.1,0.1,0.2,0.2c0.4,0.3,0.9,0.5,1.4,0.5h4.4c1.3,0,2.3-1,2.3-2.3c0-0.6-0.2-1.2-0.7-1.6
	C165.3,159.1,164.7,158.8,164.1,158.8z"/>
<path class="st1" d="M175.3,153.1l-0.4-1c-0.6-1.1-2-1.4-3.1-0.8c-0.3,0.2-0.6,0.5-0.8,0.8l-2.9,6.8l-0.4,1
	c-0.3,0.5-0.4,1.2-0.2,1.7c0.2,0.6,0.5,1.1,1,1.4c0.5,0.3,1.2,0.4,1.7,0.2c0.6-0.2,1.1-0.5,1.4-1l0.3-0.6h2.3l0.3,0.6
	c0.3,0.5,0.8,0.9,1.3,1.1c0.6,0.2,1.2,0.1,1.7-0.2c0.5-0.3,0.9-0.8,1-1.4c0.1-0.6,0-1.2-0.2-1.7L175.3,153.1z"/>
<path class="st1" d="M152.1,151.7c-2.4-0.8-5.1-0.1-6.7,1.8c-0.9,1.1-1.4,2.4-1.5,3.7c-0.2,2.5,1.2,4.9,3.5,6
	c1.3,0.6,2.7,0.8,4.1,0.5c3.4-0.7,5.5-4,4.8-7.4C155.7,154.1,154.2,152.4,152.1,151.7L152.1,151.7z M151.7,158.2
	C151.6,158.2,151.6,158.3,151.7,158.2c-0.1,0.2-0.2,0.4-0.2,0.5l-0.1,0.1l-0.1,0.1l-0.4,0.2l0,0h-0.1c-0.1,0-0.2,0.1-0.4,0.1h-0.4
	c-0.1,0-0.2,0-0.4-0.1h-0.1L149,159l-0.1-0.1l-0.1-0.1c-0.1-0.1-0.2-0.3-0.2-0.4l0,0c0,0,0-0.1,0-0.1c0-0.1-0.1-0.2-0.1-0.4
	c0-0.1,0-0.3,0-0.4c0-0.1,0-0.2,0.1-0.4c0,0,0-0.1,0-0.1c0.1-0.1,0.2-0.3,0.2-0.4l0.1-0.2l0.1-0.1l0.4-0.2l0,0h0.1l0.4-0.1h0.4
	l0.4,0.1h0.1c0.1,0.1,0.3,0.2,0.4,0.2l0.2,0.1l0.1,0.1l0.2,0.4l0,0c0,0,0,0.1,0,0.1c0,0.1,0.1,0.2,0.1,0.4c0,0.1,0,0.1,0,0.2
	c0,0.1,0,0.1,0,0.2S151.7,158.1,151.7,158.2z"/>
<path class="st1" d="M109.1,122.4c4.9,0.2,9.5-2,12.4-6c3-4.1,2.4-9.3,2.4-14.1v-2.4l14.5-10.7l0.2-0.2c0.5-0.3,0.8-0.7,1.1-1.2
	c0.7-1.2,0.7-2.6,0-3.8c-0.3-0.5-0.7-0.9-1.1-1.2l-0.2-0.2L124,72.1c0-2.8,0-5.5,0-8.3c0.1-7.2-5.3-13.3-12.5-14.1
	c-1.9-0.1-3.8-0.2-5.7-0.1H69c-2.3-0.1-4.6,0-6.9,0.3c-6.5,1.2-10.9,7.3-11,13.7s0,12.7,0,19v23.7c0,3.4,0.2,6.8,2.2,9.8
	c2.8,4.1,7.5,6.5,12.5,6.3L109.1,122.4L109.1,122.4z M114,58.4C114.2,58.5,114.1,58.5,114,58.4z M59,111.1
	C59.1,111.2,59.1,111.3,59,111.1z M67.2,114.9c-0.8,0-1.6,0-2.3,0H64l-0.3-0.1l-0.7-0.2c-0.2-0.1-0.4-0.1-0.6-0.2h0
	c0,0-0.1,0-0.1-0.1l-1.1-0.7l-0.1-0.1l-0.4-0.4c-0.3-0.3-0.6-0.6-0.8-0.9l-0.1-0.1c-0.2-0.3-0.3-0.6-0.5-0.8s-0.2-0.3-0.3-0.5v-0.1
	c-0.1-0.4-0.2-0.9-0.3-1.3c0-0.1,0-0.1,0-0.2v-0.5c0-0.1,0-0.2,0-0.4V63.4c0-0.2,0-0.4,0-0.5s0-0.2,0-0.4l0.1-0.3
	c0.1-0.4,0.2-0.9,0.4-1.3l0,0c0.1-0.2,0.2-0.5,0.4-0.7s0.5-0.7,0.5-0.7c0.2-0.3,0.5-0.5,0.7-0.8l0.4-0.3l0.1-0.1
	c0.4-0.2,0.8-0.5,1.2-0.7c0,0,0.7-0.3,0.9-0.3s0.9-0.2,0.9-0.2l0.8,0c2.6,0,5.2,0,7.8,0h30.4c2.3,0,4.6,0,6.8,0c0.2,0,1,0.1,0.9,0.1
	c0.3,0.1,0.6,0.1,0.9,0.2l0.6,0.2l0,0c0.4,0.2,0.8,0.5,1.3,0.7h0.1c0.2,0.1,0.3,0.2,0.4,0.4c0.3,0.2,0.5,0.5,0.7,0.8
	c0,0.1,0.4,0.6,0.5,0.7s0.2,0.4,0.3,0.6l0.1,0.1c0,0,0,0.1,0,0.2c0.1,0.4,0.2,0.8,0.3,1.3c0,0,0,0.1,0,0.2s0,0.3,0,0.5s0,0.5,0,0.8
	c0,1,0,2,0,3c0,2.3,0,4.5,0,6.8s1.8,3.4,3.4,4.7l10.4,7.7l-4.9,3.6l-5.6,4.1l-1.3,1c-1.2,0.8-2,2.2-2,3.7c-0.1,2.3,0,4.6,0,7
	c0,1,0,1.9,0,2.9c0,0.3,0,0.6,0,0.8c0,0,0,0.2,0,0.3s-0.1,0.3-0.1,0.3c-0.1,0.4-0.2,0.8-0.4,1.2c-0.1,0.1-0.3,0.6-0.4,0.8
	s-0.5,0.7-0.5,0.7c-0.2,0.3-0.5,0.5-0.7,0.8l-0.3,0.2c-0.2,0.1-0.3,0.2-0.5,0.4c-0.3,0.2-0.6,0.4-0.9,0.5c-0.1,0-0.7,0.3-0.9,0.3
	l-0.8,0.2H110c-0.7,0-1.3,0-2,0L67.2,114.9L67.2,114.9z"/>
<path class="st1" d="M182.2,121.3c-1.9-0.5-3.9-0.7-5.9-0.6h-36.6c-4.8,0-10.1-0.6-14.3,2.2c-2.7,1.8-4.8,4.5-5.7,7.6
	c-0.5,1.7-0.7,3.5-0.6,5.3v7.3l-14.5,10.7c-1.8,1.1-2.3,3.5-1.2,5.3c0.3,0.5,0.7,0.9,1.2,1.2l14.5,10.7v4.2c-0.1,2.5,0,5,0.3,7.4
	c1,4.6,4.3,8.4,8.8,10c1.8,0.6,3.7,0.9,5.6,0.9H178c4,0,7.8-1.7,10.4-4.7c2.3-2.6,3.5-5.9,3.5-9.4v-44.9
	C191.9,128.5,188,123.2,182.2,121.3z M184.2,181.5c-0.1,0.2-0.1,0.4-0.2,0.7l-0.1,0.1c-0.2,0.4-0.5,0.8-0.8,1.2
	c-0.1,0.1-0.2,0.2-0.2,0.3s-0.4,0.4-0.6,0.6l-0.3,0.3c0-0.1-0.5,0.4-0.6,0.4s-1,0.5-0.9,0.5c-0.5,0.2-0.9,0.3-1.4,0.4H179
	c-0.3,0-0.6,0-0.9,0.1H178c-9.8,0.1-19.7,0-29.5,0H133h-0.8H132l-0.2-0.1l-0.6-0.1c-0.3-0.1-0.5-0.2-0.8-0.2l-0.5-0.2l-0.6-0.3
	l-0.4-0.3l-0.4-0.3c-0.2-0.1-0.3-0.3-0.5-0.4c0,0-0.2-0.2-0.3-0.4l-0.3-0.4c-0.1-0.2-0.2-0.4-0.3-0.6c-0.1-0.1-0.2-0.3-0.2-0.5
	c-0.2-0.5-0.3-1-0.4-1.4c0-0.1,0-0.1,0-0.2v-0.2c0-0.2,0-0.5,0-0.7s0-0.5,0-0.7v-8.6c0-1.8-0.3-3.2-1.9-4.4c-0.5-0.4-1-0.7-1.5-1.1
	l-10.4-7.7l11.2-8.3l0.8-0.6c1.2-0.8,1.9-2.1,1.9-3.6c0-1.8,0-3.5,0-5.3c0-1.6,0-3.2,0-4.8c0-0.3,0-0.6,0-0.9c0,0,0.1-0.6,0.1-0.8
	s0.2-0.6,0.3-0.9c0-0.1,0.2-0.4,0.2-0.5c0.2-0.3,0.4-0.6,0.6-1l0.2-0.2c0.3-0.3,0.6-0.6,0.9-0.9c0.1-0.1,0.2-0.1,0.3-0.2l0.8-0.5
	l0.4-0.2h0.1c0.4-0.1,0.7-0.2,1.1-0.3l0.4-0.1h0.1h0.7H177c0.6,0,1.1,0,1.7,0h0.1l0.4,0.1c0.3,0.1,0.6,0.2,1,0.3l0.4,0.1h0.1l1,0.6
	c0.1,0.1,0.2,0.1,0.3,0.2c0.3,0.2,0.6,0.5,0.8,0.8c0.1,0.1,0.3,0.3,0.4,0.4c0.2,0.3,0.4,0.6,0.6,0.9c0.1,0.1,0.2,0.4,0.2,0.5
	c0.1,0.2,0.2,0.5,0.2,0.7s0.1,0.7,0.2,0.9c0,0,0,0.1,0,0.1v0.7v45.1v0.7v0.1c0,0,0,0,0,0.1C184.3,180.9,184.3,181.2,184.2,181.5
	L184.2,181.5z"/>
<path class="st1" d="M151.4,89.7h13.3v19.5c0,2.1,1.7,3.8,3.8,3.8c2.1,0,3.8-1.7,3.8-3.8l0,0V86c0-2.1-1.7-3.7-3.8-3.8h-17
	c-2.1,0-3.8,1.7-3.8,3.8S149.4,89.7,151.4,89.7L151.4,89.7z"/>
<path class="st1" d="M92,153.3H78.7v-19.5c0-2.1-1.7-3.8-3.8-3.8s-3.8,1.7-3.8,3.8v23.2c0,2.1,1.7,3.7,3.8,3.8H92
	c2.1,0,3.8-1.7,3.8-3.8S94.1,153.3,92,153.3L92,153.3z"/>
<path class="st1" d="M140.3,151.3c-1.3,0-2.3,1-2.3,2.3v1.8c-0.1,0-0.3-0.1-0.5-0.1h-2.1v-1.8c0-1.3-1-2.3-2.3-2.3s-2.3,1-2.3,2.3
	v8.1c0,1.3,1,2.3,2.3,2.3s2.3-1,2.3-2.3v-1.8h2.1c0.2,0,0.3,0,0.5,0v1.8c0,1.3,1,2.3,2.3,2.3s2.3-1,2.3-2.3v-8.1
	C142.6,152.3,141.6,151.3,140.3,151.3z"/>
<path class="st1" d="M88,80.5c-1.3,0-2.3,1-2.3,2.3v1.8c-0.1,0-0.3-0.1-0.5-0.1h-2.1v-1.8c0-1.3-1-2.3-2.3-2.3s-2.3,1-2.3,2.3v8.1
	c0,1.3,1,2.3,2.3,2.3s2.3-1,2.3-2.3v-1.8h2.1c0.2,0,0.3,0,0.5,0v1.8c0,1.3,1,2.3,2.3,2.3c1.3,0,2.3-1,2.3-2.3v-8.1
	C90.3,81.5,89.3,80.5,88,80.5z"/>
<path class="st1" d="M94.5,80.5c-1.3,0-2.4,1.1-2.4,2.4v8.4c0,1.3,1.1,2.4,2.4,2.4c1.3,0,2.4-1.1,2.4-2.4v-8.4
	C96.8,81.6,95.8,80.5,94.5,80.5z"/>
</svg>
