<svg id="Layer_1" data-name="Layer 1" xmlns="http://www.w3.org/2000/svg" xmlns:xlink="http://www.w3.org/1999/xlink" viewBox="0 0 243 243"><defs><style>.cls-1{fill:url(#linear-gradient);}.cls-2{fill:#fff;}</style><linearGradient id="linear-gradient" x1="21.8" y1="31.53" x2="218.89" y2="209.48" gradientUnits="userSpaceOnUse"><stop offset="0" stop-color="#18c5ba"/><stop offset="1" stop-color="#1f8679"/></linearGradient></defs><rect class="cls-1" x="16.5" y="16.55" width="210" height="210" rx="36.4"/><path class="cls-2" d="M173.5,93.5a4.94,4.94,0,0,0-1.6-3.2L165,84.6c-5.5-4.6-11-9.1-16.5-13.7a5.49,5.49,0,0,0-3.1-1.4H73.3a3.86,3.86,0,0,0-3.8,3.8V158c0,3.9-.1,7.8,0,11.7v.2a3.86,3.86,0,0,0,3.8,3.8H158c3.9,0,7.8.1,11.7,0h.2a3.86,3.86,0,0,0,3.8-3.8V94.6C173.5,94.2,173.6,93.9,173.5,93.5ZM97.7,77h20.1V98h-23V77Zm39.4,89H94.6V150.7h53.9V166Zm18.9,0V147a3.86,3.86,0,0,0-3.8-3.8H90.8A3.86,3.86,0,0,0,87,147v19H85.1c-2.7,0-5.4-.1-8.1-.1V85.1c0-2.7.1-5.4.1-8.1H87.3v24.7a3.86,3.86,0,0,0,3.8,3.8h30.4a3.86,3.86,0,0,0,3.8-3.8V77h18.9l20,16.6,1.9,1.6V166Z"/><path class="cls-2" d="M150.8,128.1h-60c-3.9,0-3.9,6,0,6h60C154.7,134.1,154.7,128.1,150.8,128.1Z"/><path class="cls-2" d="M90.8,120.4h34.1c3.9,0,3.9-6,0-6H90.8C87,114.4,87,120.4,90.8,120.4Z"/></svg>