<?xml version="1.0" encoding="utf-8"?>
<!-- Generator: Adobe Illustrator 26.0.3, SVG Export Plug-In . SVG Version: 6.00 Build 0)  -->
<svg version="1.1" id="Layer_1" xmlns="http://www.w3.org/2000/svg" xmlns:xlink="http://www.w3.org/1999/xlink" x="0px" y="0px"
	 viewBox="0 0 75 540" style="enable-background:new 0 0 75 540;" xml:space="preserve">
<style type="text/css">
	.st0{fill:url(#SVGID_1_);}
	.st1{fill:url(#SVGID_00000154383786896954438550000000381753181313999284_);}
	.st2{fill:url(#SVGID_00000038387102048880749070000008261519816350030249_);}
	.st3{fill:#FFFFFF;}
	.st4{fill:url(#SVGID_00000011748745501770473960000002009975582673795997_);}
	.st5{fill:url(#SVGID_00000167374622325489169250000018313877853752342689_);}
</style>
<linearGradient id="SVGID_1_" gradientUnits="userSpaceOnUse" x1="61.1566" y1="999.1252" x2="247.1566" y2="999.1252" gradientTransform="matrix(6.123234e-17 -1 -0.3295 -2.017689e-17 366.7254 545.1566)">
	<stop  offset="0" style="stop-color:#008879"/>
	<stop  offset="1" style="stop-color:#00C8BA"/>
</linearGradient>
<polygon class="st0" points="36.8,298 36.8,484 38.2,484 38.2,298 "/>
<linearGradient id="SVGID_00000054264859709599211270000007029250253236792739_" gradientUnits="userSpaceOnUse" x1="303.1566" y1="999.1252" x2="489.1566" y2="999.1252" gradientTransform="matrix(6.123234e-17 -1 -0.3295 -2.017689e-17 366.7254 545.1566)">
	<stop  offset="0" style="stop-color:#008879"/>
	<stop  offset="1" style="stop-color:#00C8BA"/>
</linearGradient>
<polygon style="fill:url(#SVGID_00000054264859709599211270000007029250253236792739_);" points="36.8,56 36.8,242 38.2,242 
	38.2,56 "/>
<g>
	
		<linearGradient id="SVGID_00000093894414326211673210000014201536014167334055_" gradientUnits="userSpaceOnUse" x1="9.5" y1="28" x2="65.5" y2="28">
		<stop  offset="0" style="stop-color:#00C8BA"/>
		<stop  offset="1" style="stop-color:#008879"/>
	</linearGradient>
	<path style="fill:url(#SVGID_00000093894414326211673210000014201536014167334055_);" d="M56.3,56H18.7c-5.1,0-9.2-4.2-9.2-9.2V9.2
		c0-5.1,4.2-9.2,9.2-9.2l37.5,0c5.1,0,9.2,4.2,9.2,9.2v37.5C65.5,51.8,61.3,56,56.3,56z"/>
	<path class="st3" d="M45.5,27.9c-4.9-1.7-10.2,0.9-11.9,5.7c-1.7,4.9,0.9,10.2,5.7,11.9c1.6,0.5,3.2,0.7,4.8,0.3
		c4.2-0.8,7.5-4.7,7.5-9.1c0,0,0-0.1,0-0.1C51.7,32.7,49.2,29.2,45.5,27.9z M49.5,36.7c0,3-1.8,5.6-4.6,6.7c-2.9,1-6.1,0.2-8-2.2
		c-2.5-3.1-2-7.5,1-10.1c1.3-1,2.9-1.6,4.5-1.6c0.5,0,0.9,0,1.4,0.1C47.1,30.4,49.5,33.3,49.5,36.7z"/>
	<path class="st3" d="M31.9,29.4c0.2-0.4,0.4-0.8,0.6-1.1c0.1-0.2,0.3-0.3,0.4-0.5c0.1-0.1-0.1,0.1,0.1-0.1l0.2-0.3
		c0.3-0.3,0.6-0.6,0.9-0.9c0.2-0.1,0.3-0.3,0.5-0.4c0.1-0.1-0.1,0.1,0.1-0.1l0.3-0.2c0.3-0.3,0.7-0.5,1.1-0.7
		c0.2-0.1,0.3-0.2,0.5-0.3c0.3-0.1,0.3-0.2,0.1-0.1l0.3-0.1c0.4-0.1,0.8-0.3,1.2-0.3c0.2-0.1,0.4-0.1,0.6-0.1c0.1,0,0.2,0,0.3-0.1
		c-0.2,0,0.1,0,0.2,0c0.6-0.1,1.2-0.5,1.2-1.2c0-0.6-0.5-1.3-1.2-1.2c-4,0.4-7.6,2.8-9.4,6.4c-0.3,0.6-0.1,1.3,0.4,1.6
		C30.8,30.2,31.6,30,31.9,29.4L31.9,29.4z"/>
	<path class="st3" d="M25.6,29.7c0.2-0.7,0.4-1.5,0.7-2.2c-0.1,0.2,0,0,0,0c0-0.1,0.1-0.2,0.1-0.3c0-0.1,0.1-0.3,0.2-0.4
		c0.2-0.3,0.3-0.7,0.5-1c0.2-0.3,0.3-0.6,0.6-0.9c0.1-0.2,0.2-0.3,0.3-0.4l0.1-0.2c0.2-0.2-0.1,0.1,0.1-0.1c0.4-0.6,1-1.1,1.5-1.6
		c0.2-0.2,0.5-0.4,0.7-0.7l0.4-0.3l0.2-0.1c-0.2,0.2,0.1-0.1,0.2-0.1c0.6-0.4,1.2-0.8,1.8-1.1c0.3-0.2,0.6-0.3,1-0.5
		c0.1-0.1,0.3-0.1,0.4-0.2c0.3-0.2-0.2,0.1,0.1-0.1l0.3-0.1c0.7-0.3,1.3-0.5,2-0.6c0.4-0.1,0.8-0.2,1.2-0.3l0.3,0
		c0.3-0.1-0.3,0,0.1,0c0.2,0,0.4,0,0.6-0.1c0.9-0.1,1.7-0.1,2.5,0c0.7,0,1.2-0.5,1.2-1.2c0-0.7-0.5-1.2-1.2-1.2
		c-8.4-0.6-16.1,4.9-18.2,13.1c-0.2,0.6,0.2,1.3,0.8,1.5C24.8,30.7,25.5,30.3,25.6,29.7L25.6,29.7L25.6,29.7z"/>
	<path class="st3" d="M19.6,29.9c0.2-1.1,0.5-2.3,0.9-3.4c0.1-0.3,0.2-0.5,0.3-0.8c0.1-0.1,0.1-0.3,0.1-0.3l0.1-0.2
		c-0.1,0.2,0,0,0-0.1c0.2-0.5,0.5-1,0.7-1.5c0.5-1,1.1-1.9,1.8-2.8l0.1-0.2c0.1-0.1,0.2-0.2,0.2-0.3c0.2-0.2,0.3-0.4,0.5-0.6
		c0.3-0.4,0.7-0.8,1.1-1.2c0.4-0.4,0.8-0.8,1.2-1.1c0.2-0.2,0.4-0.3,0.6-0.5l0.2-0.1c0,0-0.2,0.1,0,0l0.3-0.3
		c0.9-0.6,1.8-1.2,2.8-1.7c0.5-0.3,1-0.5,1.5-0.7c0,0,0.2-0.1,0.1,0c-0.1,0.1,0,0,0.1,0l0.4-0.2c0.3-0.1,0.5-0.2,0.8-0.3
		c1-0.3,2.1-0.6,3.2-0.8c0.3-0.1,0.6-0.1,1-0.2c-0.2,0,0.1,0,0.2,0l0.5-0.1c0.6-0.1,1.3-0.1,1.9-0.1c0.6,0,1.2,0,1.9,0.1
		c0.3,0,0.7,0.1,1,0.1h0.1l0.2,0l0.6,0.1c0.6,0.1,1.3-0.2,1.5-0.8c0.1-0.6-0.2-1.3-0.8-1.5c-4.9-0.9-9.9-0.2-14.3,1.9
		c-6.8,3.2-11.7,9.6-13,17c-0.2,0.6,0.2,1.3,0.8,1.5C18.6,30.9,19.4,30.6,19.6,29.9L19.6,29.9z"/>
</g>
<g>
	
		<linearGradient id="SVGID_00000003100944899013145760000000640944349089210762_" gradientUnits="userSpaceOnUse" x1="9.5" y1="512" x2="65.5" y2="512">
		<stop  offset="0" style="stop-color:#00C8BA"/>
		<stop  offset="1" style="stop-color:#008879"/>
	</linearGradient>
	<path style="fill:url(#SVGID_00000003100944899013145760000000640944349089210762_);" d="M56.3,540H18.7c-5.1,0-9.2-4.2-9.2-9.2
		v-37.5c0-5.1,4.2-9.2,9.2-9.2h37.5c5.1,0,9.2,4.2,9.2,9.2v37.5C65.5,535.8,61.3,540,56.3,540z"/>
	<g>
		<g>
			<path class="st3" d="M32.8,523.1c-2.9,0-5.7,0-8.6,0c-0.4,0-0.8,0-1.2,0c-0.1,0-0.2,0-0.3,0c-0.2,0-0.3,0-0.5,0
				c-0.3,0,0.1,0-0.1,0c-0.1,0-0.2,0-0.3-0.1c-0.3-0.1-0.6-0.1-0.8-0.2c-0.1,0-0.1,0-0.2-0.1c0.2,0.1,0,0,0,0
				c-0.2-0.1-0.3-0.2-0.5-0.2c-0.1-0.1-0.3-0.2-0.4-0.3c-0.1,0-0.3-0.2-0.2-0.1c-0.3-0.2-0.5-0.4-0.7-0.7c-0.1-0.1-0.2-0.2-0.3-0.3
				c-0.2-0.2,0.1,0.1,0,0c0-0.1-0.1-0.1-0.1-0.2c-0.2-0.3-0.3-0.5-0.5-0.8c0-0.1-0.1-0.1-0.1-0.2c0.1,0.2,0,0,0-0.1
				c0-0.1-0.1-0.3-0.1-0.4c0-0.2-0.1-0.3-0.1-0.5c0-0.1,0-0.1,0-0.2c0-0.1,0-0.3,0-0.1c0-0.3-0.1-0.6,0-1c0-0.2,0-0.3,0-0.5
				c0,0,0-0.3,0-0.2c0,0.1,0-0.2,0-0.2c0.1-0.4,0.2-0.7,0.3-1c0-0.1,0.1-0.2,0-0.1c0-0.1,0.1-0.2,0.1-0.3c0.1-0.1,0.1-0.3,0.2-0.4
				c0.1-0.2,0.2-0.3,0.3-0.5c0,0,0.1-0.2,0,0c0.1-0.1,0.1-0.1,0.2-0.2c0.2-0.3,0.5-0.5,0.8-0.7c0,0,0.1-0.1,0.1-0.1
				c-0.2,0.1,0.1-0.1,0.1-0.1c0.1-0.1,0.3-0.2,0.4-0.3c0.1-0.1,0.3-0.2,0.4-0.2c0,0,0.3-0.1,0.1,0c0.1,0,0.2-0.1,0.3-0.1
				c0.3-0.1,0.7-0.2,1.1-0.3c0,0,0.2,0,0,0c0.1,0,0.2,0,0.3,0c0.2,0,0.4,0,0.5,0c0.6,0,1.1-0.5,1.1-1.1c0-0.7,0-1.4,0.1-2.1
				c0-0.1,0-0.2,0-0.3c0,0,0,0.2,0,0c0-0.1,0-0.3,0.1-0.4c0.1-0.3,0.1-0.7,0.2-1c0.1-0.3,0.2-0.6,0.3-0.9c0-0.1,0.1-0.2,0.1-0.4
				c0-0.1,0.1-0.2,0.1-0.3c0,0,0.1-0.3,0-0.1c0.2-0.6,0.5-1.1,0.8-1.6c0.1-0.2,0.3-0.5,0.5-0.7c0.1-0.1,0.2-0.3,0.3-0.4
				c0-0.1,0.1-0.1,0.1-0.2c-0.1,0.2,0.1-0.1,0.1-0.1c0.4-0.5,0.8-0.9,1.2-1.3c0.2-0.2,0.4-0.4,0.6-0.6c0.1-0.1,0.1-0.1,0.2-0.2
				c0,0,0.2-0.1,0,0c0.1-0.1,0.3-0.2,0.4-0.3c0.5-0.4,1-0.7,1.6-1c0.3-0.1,0.6-0.3,0.8-0.4c0,0,0.2-0.1,0,0c0.1,0,0.1,0,0.2-0.1
				c0.2-0.1,0.4-0.1,0.6-0.2c0.6-0.2,1.2-0.4,1.8-0.5c0.1,0,0.3-0.1,0.4-0.1c0.1,0,0.2,0,0.2,0c0,0-0.2,0,0,0c0.3,0,0.7-0.1,1-0.1
				c0.7,0,1.3,0,2,0.1c0.1,0,0.2,0,0.3,0c0.2,0-0.3,0,0.1,0c0.1,0,0.3,0,0.4,0.1c0.3,0.1,0.7,0.1,1,0.2c0.3,0.1,0.6,0.2,0.9,0.3
				c0.1,0,0.3,0.1,0.4,0.2c0.1,0,0.1,0,0.2,0.1c0,0,0.3,0.1,0.2,0.1c-0.1-0.1,0.2,0.1,0.1,0.1c0.1,0,0.1,0.1,0.2,0.1
				c0.1,0.1,0.3,0.1,0.4,0.2c0.3,0.2,0.6,0.3,0.9,0.5c0.3,0.2,0.5,0.3,0.8,0.5c0.1,0.1,0.2,0.2,0.3,0.2c0.3,0.2-0.2-0.1,0.1,0.1
				c0.1,0.1,0.2,0.1,0.2,0.2c0.5,0.4,1,0.9,1.5,1.5c0.1,0.1,0.2,0.3,0.4,0.4c0.1,0.1,0.1,0.1,0.2,0.2c-0.1-0.1,0,0.1,0.1,0.1
				c0.2,0.3,0.4,0.6,0.6,0.9c0.2,0.3,0.4,0.6,0.5,0.9c0.1,0.2,0.2,0.4,0.3,0.5c0,0.1,0.1,0.1,0.1,0.2c0,0,0.1,0.3,0,0.1
				c0.3,0.7,0.5,1.4,0.7,2.1c0.1,0.5,0.6,0.8,1.1,0.8c0.4,0,0.7,0,1.1,0c0.1,0,0.2,0,0.3,0c0.2,0-0.3,0,0.1,0c0.2,0,0.4,0.1,0.6,0.1
				c0.3,0.1,0.6,0.2,0.9,0.3c0.1,0,0.4,0.2,0.2,0.1c0.2,0.1,0.4,0.2,0.5,0.2c0.3,0.1,0.6,0.3,0.8,0.5c0.1,0.1,0.3,0.2,0.4,0.3
				c0,0-0.2-0.1,0,0c0.1,0.1,0.2,0.1,0.3,0.2c0.2,0.2,0.4,0.4,0.6,0.6c0.1,0.1,0.2,0.2,0.3,0.4c0.2,0.2-0.1-0.1,0,0
				c0.1,0.1,0.1,0.2,0.2,0.3c0.2,0.3,0.3,0.5,0.5,0.8c0.1,0.1,0.1,0.3,0.2,0.4c0,0.1,0.1,0.1,0.1,0.2c-0.1-0.2,0,0.1,0,0.1
				c0.1,0.3,0.2,0.6,0.3,0.9c0,0.2,0.1,0.3,0.1,0.5c0,0.1,0,0.1,0,0.2c0,0.1,0,0.1,0,0c0,0.1,0,0.1,0,0.2c0,0.3,0,0.6,0,1
				c0,0.2,0,0.3,0,0.5c0,0.1,0,0.2,0,0.3c0,0.2,0-0.2,0,0.1c-0.1,0.3-0.1,0.7-0.2,1c0,0.1-0.1,0.3-0.1,0.4c0,0.1-0.1,0.2-0.1,0.2
				c0,0.1-0.1,0.3,0,0.1c-0.3,0.6-0.6,1.2-1,1.7c0.1-0.2-0.1,0.1-0.2,0.2c-0.1,0.1-0.2,0.2-0.3,0.4c-0.2,0.2-0.5,0.5-0.7,0.7
				c-0.2,0.2,0.1-0.1,0,0c-0.1,0-0.1,0.1-0.2,0.1c-0.1,0.1-0.3,0.2-0.4,0.3c-0.3,0.2-0.6,0.3-0.8,0.5c-0.1,0-0.2,0.1-0.3,0.1
				c0.2-0.1,0,0,0,0c-0.2,0.1-0.3,0.1-0.5,0.2c-0.3,0.1-0.7,0.2-1.1,0.3c-0.1,0-0.1,0-0.2,0c-0.3,0.1,0.2,0-0.1,0
				c-0.2,0-0.3,0-0.5,0c-0.2,0-0.3,0-0.5,0c-0.2,0-0.4,0-0.5,0c-0.8,0-1.6,0-2.4,0c-1.6,0-3.2,0-4.8,0c-0.6,0-1.1,0.5-1.1,1.1
				c0,0.6,0.5,1.1,1.1,1.1c1.5,0,2.9,0,4.4,0c1.6,0,3.4,0.1,5-0.1c2.9-0.5,5.6-2.5,6.9-5.1c1.4-2.8,1.3-6.2-0.3-8.9
				c-1.7-3-5.1-4.9-8.6-4.7c0.4,0.3,0.7,0.5,1.1,0.8c-1.3-5.6-6-10.1-11.7-11.1c-2.9-0.5-5.9-0.2-8.6,1c-2.5,1.1-4.7,2.9-6.2,5.1
				c-1.8,2.6-2.7,5.8-2.6,9c0.4-0.4,0.7-0.7,1.1-1.1c-2.9,0-5.7,1.8-6.9,4.5c-1.3,2.8-0.7,6.2,1.5,8.4c1,1,2.3,1.8,3.7,2.1
				c0.7,0.2,1.4,0.2,2.2,0.2c1.7,0,3.3,0,5,0c1.5,0,2.9,0,4.4,0c0.6,0,1.1-0.5,1.1-1.1C33.8,523.6,33.4,523.1,32.8,523.1L32.8,523.1
				z"/>
		</g>
		<g>
			<path class="st3" d="M38.6,527c0-1.7,0-3.5,0-5.2c0-2.8,0-5.5,0-8.3c0-0.6,0-1.3,0-1.9c0-0.6-0.5-1.1-1.1-1.1
				c-0.6,0-1.1,0.5-1.1,1.1c0,1.7,0,3.5,0,5.2c0,2.8,0,5.5,0,8.3c0,0.6,0,1.3,0,1.9c0,0.6,0.5,1.1,1.1,1.1
				C38.1,528.1,38.6,527.7,38.6,527L38.6,527z"/>
		</g>
		<g>
			<path class="st3" d="M33.9,517.4c1.3-1.5,2.6-3.1,3.9-4.6c0.2-0.2,0.4-0.4,0.5-0.7c-0.5,0-1,0-1.6,0c1.3,1.5,2.6,3.1,3.9,4.6
				c0.2,0.2,0.4,0.4,0.5,0.7c0.4,0.5,1.2,0.4,1.6,0c0.5-0.5,0.4-1.1,0-1.6c-1.3-1.5-2.6-3.1-3.9-4.6c-0.2-0.2-0.4-0.4-0.5-0.7
				c-0.4-0.4-1.2-0.4-1.6,0c-1.3,1.5-2.6,3.1-3.9,4.6c-0.2,0.2-0.4,0.4-0.5,0.7c-0.4,0.5-0.4,1.1,0,1.6
				C32.7,517.8,33.5,517.8,33.9,517.4L33.9,517.4z"/>
		</g>
	</g>
</g>
<g>
	
		<linearGradient id="SVGID_00000045598804355798996150000012620605118774264254_" gradientUnits="userSpaceOnUse" x1="9.5" y1="270" x2="65.5" y2="270">
		<stop  offset="0" style="stop-color:#00C8BA"/>
		<stop  offset="1" style="stop-color:#008879"/>
	</linearGradient>
	<path style="fill:url(#SVGID_00000045598804355798996150000012620605118774264254_);" d="M56.3,298H18.7c-5.1,0-9.2-4.2-9.2-9.2
		v-37.5c0-5.1,4.2-9.2,9.2-9.2h37.5c5.1,0,9.2,4.2,9.2,9.2v37.5C65.5,293.8,61.3,298,56.3,298z"/>
	<g>
		<path class="st3" d="M16.5,273.3c1.4-1.7,2.8-3.3,4.1-5c-0.5,0-1.1,0-1.6,0c1.4,1.7,2.8,3.3,4.1,5c0.4,0.5,1.2,0.4,1.6,0
			c0.5-0.5,0.4-1.1,0-1.6c-1.4-1.7-2.8-3.3-4.1-5c-0.4-0.4-1.2-0.4-1.6,0c-1.4,1.7-2.8,3.3-4.1,5c-0.4,0.5-0.5,1.1,0,1.6
			C15.3,273.7,16.1,273.8,16.5,273.3L16.5,273.3z"/>
	</g>
	<g>
		<path class="st3" d="M58.5,266.1c-1.4,1.7-2.8,3.3-4.1,5c0.5,0,1.1,0,1.6,0c-1.4-1.7-2.8-3.3-4.1-5c-0.4-0.5-1.2-0.4-1.6,0
			c-0.5,0.5-0.4,1.1,0,1.6c1.4,1.7,2.8,3.3,4.1,5c0.4,0.4,1.2,0.4,1.6,0c1.4-1.7,2.8-3.3,4.1-5c0.4-0.5,0.5-1.1,0-1.6
			C59.7,265.7,58.9,265.7,58.5,266.1L58.5,266.1z"/>
	</g>
	<g>
		<path class="st3" d="M52.2,277.6c-0.4,0.7-0.8,1.4-1.2,2c-0.1,0.1-0.2,0.3-0.3,0.4c-0.1,0.2,0,0.1,0,0c-0.1,0.1-0.1,0.2-0.2,0.3
			c-0.3,0.3-0.5,0.6-0.8,0.9c-0.5,0.6-1.1,1.1-1.6,1.6c-0.5,0.4-1.1,0.8-1.8,1.3c-1.4,0.9-2.5,1.4-4,1.8c-0.8,0.2-1.6,0.4-2.4,0.5
			c0.2,0,0,0,0,0c-0.1,0-0.2,0-0.3,0c-0.2,0-0.4,0-0.6,0c-0.4,0-0.8,0-1.3,0c-0.8,0-1.5,0-2.3-0.1c-0.2,0,0.3,0-0.1,0
			c-0.1,0-0.2,0-0.3,0c-0.2,0-0.3-0.1-0.5-0.1c-0.4-0.1-0.7-0.2-1.1-0.3c-0.7-0.2-1.4-0.4-2-0.7c0,0-0.3-0.1-0.1,0
			c-0.1,0-0.1-0.1-0.2-0.1c-0.2-0.1-0.3-0.1-0.5-0.2c-0.3-0.2-0.7-0.3-1-0.5c-0.6-0.3-1.2-0.7-1.8-1.2c-0.1,0-0.4-0.3-0.2-0.2
			c-0.1-0.1-0.3-0.2-0.4-0.3c-0.3-0.2-0.6-0.5-0.8-0.7c-0.5-0.5-1-1-1.5-1.6c-0.1-0.1-0.2-0.3-0.3-0.4c0.1,0.2-0.1-0.2-0.2-0.2
			c-0.2-0.3-0.4-0.6-0.6-0.9c-0.4-0.7-0.8-1.4-1.2-2.1c0-0.1-0.1-0.1-0.1-0.2c0,0-0.2-0.4-0.1-0.2c-0.1-0.2-0.2-0.4-0.2-0.6
			c-0.1-0.4-0.3-0.8-0.4-1.2c-0.2-0.8-0.4-1.6-0.5-2.4c0,0,0-0.2,0,0c0-0.1,0-0.2,0-0.4c0-0.2,0-0.4-0.1-0.6c0-0.4,0-0.9,0-1.3
			c0-0.6-0.5-1.2-1.1-1.1c-0.6,0-1.1,0.5-1.1,1.1c0,6.4,3.3,12.4,8.7,15.8c5.6,3.6,13,3.9,18.9,0.7c3.3-1.8,6.1-4.5,7.8-7.9
			c0.3-0.5,0.1-1.2-0.4-1.6C53.2,276.9,52.4,277,52.2,277.6L52.2,277.6z"/>
	</g>
	<g>
		<path class="st3" d="M23.2,261.8c0.2-0.3,0.4-0.6,0.6-0.9c0.1-0.2,0.2-0.3,0.3-0.5c0.1-0.1,0.1-0.2,0.2-0.3c0,0,0.2-0.3,0.1-0.1
			c0.5-0.6,1-1.2,1.5-1.7c0.3-0.3,0.5-0.5,0.8-0.7c0.1-0.1,0.3-0.2,0.4-0.4c0.1-0.1,0.2-0.1,0.3-0.2c0.2-0.1-0.1,0.1,0.1-0.1
			c0.6-0.5,1.3-0.9,1.9-1.3c0.3-0.2,0.6-0.4,1-0.5c0.2-0.1,0.3-0.2,0.5-0.2c0,0,0.3-0.1,0.2-0.1c-0.1,0,0,0,0.1,0
			c0.1,0,0.1-0.1,0.2-0.1c0.7-0.3,1.5-0.5,2.2-0.7c1.6-0.4,2.9-0.5,4.6-0.5c0.4,0,0.7,0,1.1,0.1c0.2,0,0.3,0,0.5,0.1c0,0,0.2,0,0,0
			c0.1,0,0.2,0,0.4,0.1c0.7,0.1,1.4,0.3,2.1,0.5c0.3,0.1,0.7,0.2,1,0.3c0.2,0.1,0.3,0.1,0.5,0.2c0.1,0,0.2,0.1,0.2,0.1
			c0.3,0.1-0.1-0.1,0.1,0c0.6,0.3,1.3,0.6,1.9,1c0.6,0.4,1.2,0.7,1.7,1.2c0.3,0.2-0.2-0.1,0.1,0.1c0.1,0,0.1,0.1,0.2,0.1
			c0.1,0.1,0.3,0.2,0.4,0.3c0.3,0.2,0.5,0.5,0.8,0.7c0.5,0.5,1,1,1.4,1.5c0.1,0.1,0.1,0.1,0.2,0.2c0.1,0.2-0.2-0.2,0,0
			c0.1,0.1,0.2,0.3,0.3,0.4c0.2,0.3,0.4,0.6,0.6,0.9c0.4,0.7,0.8,1.3,1.1,2c0,0.1,0.1,0.2,0.1,0.3c0.1,0.3-0.1-0.2,0,0.1
			c0.1,0.2,0.1,0.4,0.2,0.6c0.1,0.4,0.3,0.8,0.4,1.2c0.2,0.8,0.4,1.5,0.5,2.3c0.1,0.3,0-0.2,0,0.1c0,0.1,0,0.2,0,0.3
			c0,0.2,0,0.4,0.1,0.6c0,0.4,0,0.8,0,1.3c0,0.6,0.5,1.2,1.1,1.1c0.6,0,1.1-0.5,1.1-1.1c0-6.3-3.2-12.1-8.4-15.6
			c-5.5-3.7-12.7-4.1-18.6-1.3c-3.4,1.6-6.2,4.3-8.1,7.5c-0.3,0.5-0.1,1.2,0.4,1.6C22.2,262.5,22.9,262.3,23.2,261.8L23.2,261.8z"/>
	</g>
</g>
</svg>
