<?xml version="1.0" encoding="utf-8"?>
<!-- Generator: Adobe Illustrator 26.0.3, SVG Export Plug-In . SVG Version: 6.00 Build 0)  -->
<svg version="1.1" id="Layer_1" xmlns="http://www.w3.org/2000/svg" xmlns:xlink="http://www.w3.org/1999/xlink" x="0px" y="0px"
	 viewBox="0 0 683 56" style="enable-background:new 0 0 683 56;" xml:space="preserve">
<style type="text/css">
	.st0{fill:#FFFFFF;}
	.st1{fill:url(#SVGID_1_);}
	.st2{fill:url(#SVGID_00000081630785404384253450000012424748446831287736_);}
	.st3{fill:url(#SVGID_00000136396528539597507890000013755481515255296922_);}
	.st4{fill:url(#SVGID_00000098906093950762399300000000777523958676401036_);}
	.st5{fill:url(#SVGID_00000062152088379462208760000008801103004578215042_);}
</style>
<linearGradient id="SVGID_1_" gradientUnits="userSpaceOnUse" x1="3.028617e-10" y1="28" x2="56" y2="28">
	<stop  offset="0" style="stop-color:#00C8BA"/>
	<stop  offset="1" style="stop-color:#008879"/>
</linearGradient>
<path class="st1" d="M46.8,56H9.2C4.2,56,0,51.8,0,46.8L0,9.2C0,4.2,4.2,0,9.2,0l37.5,0C51.8,0,56,4.2,56,9.2v37.5
	C56,51.8,51.8,56,46.8,56z"/>
<linearGradient id="SVGID_00000060746903056909375750000003370944417689848245_" gradientUnits="userSpaceOnUse" x1="56" y1="28" x2="313.36" y2="28" gradientTransform="matrix(1 0 0 -0.3295 0 37.2264)">
	<stop  offset="0" style="stop-color:#008879"/>
	<stop  offset="1" style="stop-color:#00C8BA"/>
</linearGradient>
<rect x="56" y="27.3" style="fill:url(#SVGID_00000060746903056909375750000003370944417689848245_);" width="257.4" height="1.4"/>
<linearGradient id="SVGID_00000133504887044643280060000012189394911984197032_" gradientUnits="userSpaceOnUse" x1="369.36" y1="28" x2="626.72" y2="28" gradientTransform="matrix(1 0 0 -0.3295 0 37.2264)">
	<stop  offset="0" style="stop-color:#008879"/>
	<stop  offset="1" style="stop-color:#00C8BA"/>
</linearGradient>
<rect x="369.4" y="27.3" style="fill:url(#SVGID_00000133504887044643280060000012189394911984197032_);" width="257.4" height="1.4"/>
<linearGradient id="SVGID_00000080179512630317060940000005446331288272997036_" gradientUnits="userSpaceOnUse" x1="313.36" y1="28" x2="369.36" y2="28">
	<stop  offset="0" style="stop-color:#00C8BA"/>
	<stop  offset="1" style="stop-color:#008879"/>
</linearGradient>
<path style="fill:url(#SVGID_00000080179512630317060940000005446331288272997036_);" d="M360.1,56h-37.5c-5.1,0-9.2-4.2-9.2-9.2
	V9.2c0-5.1,4.2-9.2,9.2-9.2l37.5,0c5.1,0,9.2,4.2,9.2,9.2l0,37.5C369.4,51.8,365.2,56,360.1,56z"/>
<linearGradient id="SVGID_00000100375418211740806100000011888958326024002985_" gradientUnits="userSpaceOnUse" x1="626.74" y1="28" x2="682.7401" y2="28">
	<stop  offset="0" style="stop-color:#00C8BA"/>
	<stop  offset="1" style="stop-color:#008879"/>
</linearGradient>
<path style="fill:url(#SVGID_00000100375418211740806100000011888958326024002985_);" d="M673.5,56H636c-5.1,0-9.2-4.2-9.2-9.2V9.2
	c0-5.1,4.2-9.2,9.2-9.2l37.5,0c5.1,0,9.2,4.2,9.2,9.2l0,37.5C682.7,51.8,678.6,56,673.5,56z"/>
<path class="st0" d="M36,27.9c-4.9-1.7-10.2,0.9-11.9,5.7c-1.7,4.9,0.9,10.2,5.7,11.9c1.6,0.5,3.2,0.7,4.8,0.3
	c4.2-0.8,7.5-4.7,7.5-9.1c0,0,0-0.1,0-0.1C42.2,32.7,39.7,29.2,36,27.9z M40,36.7c0,3-1.8,5.6-4.6,6.7c-2.9,1-6.1,0.2-8-2.2
	c-2.5-3.1-2-7.5,1-10.1c1.3-1,2.9-1.6,4.5-1.6c0.5,0,0.9,0,1.4,0.1C37.6,30.4,40,33.3,40,36.7z"/>
<path class="st0" d="M22.4,29.4c0.2-0.4,0.4-0.8,0.6-1.1c0.1-0.2,0.3-0.3,0.4-0.5c0.1-0.1-0.1,0.1,0.1-0.1l0.2-0.3
	c0.3-0.3,0.6-0.6,0.9-0.9c0.2-0.1,0.3-0.3,0.5-0.4c0.1-0.1-0.1,0.1,0.1-0.1l0.3-0.2c0.3-0.3,0.7-0.5,1.1-0.7
	c0.2-0.1,0.3-0.2,0.5-0.3c0.3-0.1,0.3-0.2,0.1-0.1l0.3-0.1c0.4-0.1,0.8-0.3,1.2-0.3c0.2-0.1,0.4-0.1,0.6-0.1c0.1,0,0.2,0,0.3-0.1
	c-0.2,0,0.1,0,0.2,0c0.6-0.1,1.2-0.5,1.2-1.2c0-0.6-0.5-1.3-1.2-1.2c-4,0.4-7.6,2.8-9.4,6.4c-0.3,0.6-0.1,1.3,0.4,1.6
	C21.3,30.2,22.1,30,22.4,29.4L22.4,29.4z"/>
<path class="st0" d="M16.1,29.7c0.2-0.7,0.4-1.5,0.7-2.2c-0.1,0.2,0,0,0,0c0-0.1,0.1-0.2,0.1-0.3c0-0.1,0.1-0.3,0.2-0.4
	c0.2-0.3,0.3-0.7,0.5-1c0.2-0.3,0.3-0.6,0.6-0.9c0.1-0.2,0.2-0.3,0.3-0.4l0.1-0.2c0.2-0.2-0.1,0.1,0.1-0.1c0.4-0.6,1-1.1,1.5-1.6
	c0.2-0.2,0.5-0.4,0.7-0.7l0.4-0.3l0.2-0.1c-0.2,0.2,0.1-0.1,0.2-0.1c0.6-0.4,1.2-0.8,1.8-1.1c0.3-0.2,0.6-0.3,1-0.5
	c0.1-0.1,0.3-0.1,0.4-0.2c0.3-0.2-0.2,0.1,0.1-0.1l0.3-0.1c0.7-0.3,1.3-0.5,2-0.6c0.4-0.1,0.8-0.2,1.2-0.3l0.3,0
	c0.3-0.1-0.3,0,0.1,0c0.2,0,0.4,0,0.6-0.1c0.9-0.1,1.7-0.1,2.5,0c0.7,0,1.2-0.5,1.2-1.2c0-0.7-0.5-1.2-1.2-1.2
	c-8.4-0.6-16.1,4.9-18.2,13.1c-0.2,0.6,0.2,1.3,0.8,1.5C15.3,30.7,16,30.3,16.1,29.7L16.1,29.7L16.1,29.7z"/>
<path class="st0" d="M10.1,29.9c0.2-1.1,0.5-2.3,0.9-3.4c0.1-0.3,0.2-0.5,0.3-0.8c0.1-0.1,0.1-0.3,0.1-0.3l0.1-0.2
	c-0.1,0.2,0,0,0-0.1c0.2-0.5,0.5-1,0.7-1.5c0.5-1,1.1-1.9,1.8-2.8l0.1-0.2c0.1-0.1,0.2-0.2,0.2-0.3c0.2-0.2,0.3-0.4,0.5-0.6
	c0.3-0.4,0.7-0.8,1.1-1.2c0.4-0.4,0.8-0.8,1.2-1.1c0.2-0.2,0.4-0.3,0.6-0.5l0.2-0.1c0,0-0.2,0.1,0,0l0.3-0.3
	c0.9-0.6,1.8-1.2,2.8-1.7c0.5-0.3,1-0.5,1.5-0.7c0,0,0.2-0.1,0.1,0s0,0,0.1,0l0.4-0.2c0.3-0.1,0.5-0.2,0.8-0.3
	c1-0.3,2.1-0.6,3.2-0.8c0.3-0.1,0.6-0.1,1-0.2c-0.2,0,0.1,0,0.2,0l0.5-0.1c0.6-0.1,1.3-0.1,1.9-0.1c0.6,0,1.2,0,1.9,0.1
	c0.3,0,0.7,0.1,1,0.1h0.1l0.2,0l0.6,0.1c0.6,0.1,1.3-0.2,1.5-0.8c0.1-0.6-0.2-1.3-0.8-1.5c-4.9-0.9-9.9-0.2-14.3,1.9
	c-6.8,3.2-11.7,9.6-13,17c-0.2,0.6,0.2,1.3,0.8,1.5C9.1,30.9,9.9,30.6,10.1,29.9L10.1,29.9z"/>
<g>
	<g>
		<path class="st0" d="M650,39.1c-2.9,0-5.7,0-8.6,0c-0.4,0-0.8,0-1.2,0c-0.1,0-0.2,0-0.3,0c-0.2,0-0.3,0-0.5,0c-0.3,0,0.1,0-0.1,0
			c-0.1,0-0.2,0-0.3-0.1c-0.3-0.1-0.6-0.1-0.8-0.3c-0.1,0-0.1,0-0.2-0.1c0.2,0.1,0,0,0,0c-0.2-0.1-0.3-0.2-0.5-0.2
			c-0.1-0.1-0.3-0.2-0.4-0.3c-0.1,0-0.3-0.2-0.2-0.1c-0.3-0.2-0.5-0.4-0.7-0.7c-0.1-0.1-0.2-0.2-0.3-0.3c-0.2-0.2,0.1,0.1,0,0
			c0-0.1-0.1-0.1-0.1-0.2c-0.2-0.3-0.3-0.5-0.5-0.8c0-0.1-0.1-0.1-0.1-0.2c0.1,0.2,0,0,0-0.1c0-0.1-0.1-0.3-0.1-0.4
			c0-0.2-0.1-0.3-0.1-0.5c0-0.1,0-0.1,0-0.2c0-0.1,0-0.3,0-0.1c0-0.3-0.1-0.6,0-1c0-0.2,0-0.3,0-0.5c0,0,0-0.3,0-0.2
			c0,0.1,0-0.2,0-0.2c0.1-0.4,0.2-0.7,0.3-1c0-0.1,0.1-0.2,0-0.1c0-0.1,0.1-0.2,0.1-0.3c0.1-0.1,0.1-0.3,0.2-0.4
			c0.1-0.2,0.2-0.3,0.3-0.5c0,0,0.1-0.2,0,0c0.1-0.1,0.1-0.1,0.2-0.2c0.2-0.3,0.5-0.5,0.8-0.7c0,0,0.1-0.1,0.1-0.1
			c-0.2,0.1,0.1-0.1,0.1-0.1c0.1-0.1,0.3-0.2,0.4-0.3c0.1-0.1,0.3-0.2,0.4-0.2c0,0,0.3-0.1,0.1,0c0.1,0,0.2-0.1,0.3-0.1
			c0.3-0.1,0.7-0.2,1.1-0.3c0,0,0.2,0,0,0c0.1,0,0.2,0,0.3,0c0.2,0,0.4,0,0.5,0c0.6,0,1.1-0.5,1.1-1.1c0-0.7,0-1.4,0.1-2.1
			c0-0.1,0-0.2,0-0.3c0,0,0,0.2,0,0c0-0.1,0-0.3,0.1-0.4c0.1-0.3,0.1-0.7,0.2-1c0.1-0.3,0.2-0.6,0.3-0.9c0-0.1,0.1-0.2,0.1-0.4
			c0-0.1,0.1-0.2,0.1-0.3c0,0,0.1-0.3,0-0.1c0.2-0.6,0.5-1.1,0.8-1.6c0.1-0.2,0.3-0.5,0.5-0.7c0.1-0.1,0.2-0.3,0.3-0.4
			c0-0.1,0.1-0.1,0.1-0.2c-0.1,0.2,0.1-0.1,0.1-0.1c0.4-0.5,0.8-0.9,1.2-1.3c0.2-0.2,0.4-0.4,0.6-0.6c0.1-0.1,0.1-0.1,0.2-0.2
			c0,0,0.2-0.1,0,0c0.1-0.1,0.3-0.2,0.4-0.3c0.5-0.4,1-0.7,1.6-1c0.3-0.1,0.6-0.3,0.8-0.4c0,0,0.2-0.1,0,0c0.1,0,0.1,0,0.2-0.1
			c0.2-0.1,0.4-0.1,0.6-0.2c0.6-0.2,1.2-0.4,1.8-0.5c0.1,0,0.3-0.1,0.4-0.1c0.1,0,0.2,0,0.2,0c0,0-0.2,0,0,0c0.3,0,0.7-0.1,1-0.1
			c0.7,0,1.3,0,2,0.1c0.1,0,0.2,0,0.3,0c0.2,0-0.3,0,0.1,0c0.1,0,0.3,0,0.4,0.1c0.3,0.1,0.7,0.1,1,0.2c0.3,0.1,0.6,0.2,0.9,0.3
			c0.1,0,0.3,0.1,0.4,0.2c0.1,0,0.1,0,0.2,0.1c0,0,0.3,0.1,0.2,0.1c-0.1-0.1,0.2,0.1,0.1,0.1c0.1,0,0.1,0.1,0.2,0.1
			c0.1,0.1,0.3,0.1,0.4,0.2c0.3,0.2,0.6,0.3,0.9,0.5c0.3,0.2,0.5,0.3,0.8,0.5c0.1,0.1,0.2,0.2,0.3,0.2c0.3,0.2-0.2-0.1,0.1,0.1
			c0.1,0.1,0.2,0.1,0.2,0.2c0.5,0.4,1,0.9,1.5,1.5c0.1,0.1,0.2,0.3,0.4,0.4c0.1,0.1,0.1,0.1,0.2,0.2c-0.1-0.1,0,0.1,0.1,0.1
			c0.2,0.3,0.4,0.6,0.6,0.9c0.2,0.3,0.4,0.6,0.5,0.9c0.1,0.2,0.2,0.4,0.3,0.5c0,0.1,0.1,0.1,0.1,0.2c0,0,0.1,0.3,0,0.1
			c0.3,0.7,0.5,1.4,0.7,2.1c0.1,0.5,0.6,0.8,1.1,0.8c0.4,0,0.7,0,1.1,0c0.1,0,0.2,0,0.3,0c0.2,0-0.3,0,0.1,0c0.2,0,0.4,0.1,0.6,0.1
			c0.3,0.1,0.6,0.2,0.9,0.3c0.1,0,0.4,0.2,0.2,0.1c0.2,0.1,0.4,0.2,0.5,0.2c0.3,0.1,0.6,0.3,0.8,0.5c0.1,0.1,0.3,0.2,0.4,0.3
			c0,0-0.2-0.1,0,0c0.1,0.1,0.2,0.1,0.3,0.2c0.2,0.2,0.4,0.4,0.6,0.6c0.1,0.1,0.2,0.2,0.3,0.4c0.2,0.2-0.1-0.1,0,0
			c0.1,0.1,0.1,0.2,0.2,0.3c0.2,0.3,0.3,0.5,0.5,0.8c0.1,0.1,0.1,0.3,0.2,0.4c0,0.1,0.1,0.1,0.1,0.2c-0.1-0.2,0,0.1,0,0.1
			c0.1,0.3,0.2,0.6,0.3,0.9c0,0.2,0.1,0.3,0.1,0.5c0,0.1,0,0.1,0,0.2c0,0.1,0,0.1,0,0c0,0.1,0,0.1,0,0.2c0,0.3,0,0.6,0,1
			c0,0.2,0,0.3,0,0.5c0,0.1,0,0.2,0,0.3c0,0.2,0-0.2,0,0.1c-0.1,0.3-0.1,0.7-0.2,1c0,0.1-0.1,0.3-0.1,0.4c0,0.1-0.1,0.2-0.1,0.2
			c0,0.1-0.1,0.3,0,0.1c-0.3,0.6-0.6,1.2-1,1.7c0.1-0.2-0.1,0.1-0.2,0.2c-0.1,0.1-0.2,0.2-0.3,0.4c-0.2,0.2-0.5,0.5-0.7,0.7
			c-0.2,0.2,0.1-0.1,0,0c-0.1,0-0.1,0.1-0.2,0.1c-0.1,0.1-0.3,0.2-0.4,0.3c-0.3,0.2-0.6,0.3-0.8,0.5c-0.1,0-0.2,0.1-0.3,0.1
			c0.2-0.1,0,0,0,0c-0.2,0.1-0.3,0.1-0.5,0.2c-0.3,0.1-0.7,0.2-1.1,0.3c-0.1,0-0.1,0-0.2,0c-0.3,0.1,0.2,0-0.1,0c-0.2,0-0.3,0-0.5,0
			c-0.2,0-0.3,0-0.5,0c-0.2,0-0.4,0-0.5,0c-0.8,0-1.6,0-2.4,0c-1.6,0-3.2,0-4.8,0c-0.6,0-1.1,0.5-1.1,1.1c0,0.6,0.5,1.1,1.1,1.1
			c1.5,0,2.9,0,4.4,0c1.6,0,3.4,0.1,5-0.1c2.9-0.5,5.6-2.5,6.9-5.1c1.4-2.8,1.3-6.2-0.3-8.9c-1.7-3-5.1-4.9-8.6-4.7
			c0.4,0.3,0.7,0.5,1.1,0.8c-1.3-5.6-6-10.1-11.7-11.1c-2.9-0.5-5.9-0.2-8.6,1c-2.5,1.1-4.7,2.9-6.2,5.1c-1.8,2.6-2.7,5.8-2.6,9
			c0.4-0.4,0.7-0.7,1.1-1.1c-2.9,0-5.7,1.8-6.9,4.5c-1.3,2.8-0.7,6.2,1.5,8.4c1,1,2.3,1.8,3.7,2.1c0.7,0.2,1.4,0.2,2.2,0.2
			c1.7,0,3.3,0,5,0c1.5,0,2.9,0,4.4,0c0.6,0,1.1-0.5,1.1-1.1C651.1,39.6,650.6,39.1,650,39.1L650,39.1z"/>
	</g>
	<g>
		<path class="st0" d="M655.8,43c0-1.7,0-3.5,0-5.2c0-2.8,0-5.5,0-8.3c0-0.6,0-1.3,0-1.9c0-0.6-0.5-1.1-1.1-1.1
			c-0.6,0-1.1,0.5-1.1,1.1c0,1.7,0,3.5,0,5.2c0,2.8,0,5.5,0,8.3c0,0.6,0,1.3,0,1.9c0,0.6,0.5,1.1,1.1,1.1
			C655.3,44.1,655.8,43.7,655.8,43L655.8,43z"/>
	</g>
	<g>
		<path class="st0" d="M651.1,33.4c1.3-1.5,2.6-3.1,3.9-4.6c0.2-0.2,0.4-0.4,0.5-0.7c-0.5,0-1,0-1.6,0c1.3,1.5,2.6,3.1,3.9,4.6
			c0.2,0.2,0.4,0.4,0.5,0.7c0.4,0.5,1.2,0.4,1.6,0c0.5-0.5,0.4-1.1,0-1.6c-1.3-1.5-2.6-3.1-3.9-4.6c-0.2-0.2-0.4-0.4-0.5-0.7
			c-0.4-0.4-1.2-0.4-1.6,0c-1.3,1.5-2.6,3.1-3.9,4.6c-0.2,0.2-0.4,0.4-0.5,0.7c-0.4,0.5-0.4,1.1,0,1.6
			C649.9,33.8,650.7,33.8,651.1,33.4L651.1,33.4z"/>
	</g>
</g>
<g>
	<path class="st0" d="M320.4,31.3c1.4-1.7,2.8-3.3,4.1-5c-0.5,0-1.1,0-1.6,0c1.4,1.7,2.8,3.3,4.1,5c0.4,0.5,1.2,0.4,1.6,0
		c0.5-0.5,0.4-1.1,0-1.6c-1.4-1.7-2.8-3.3-4.1-5c-0.4-0.4-1.2-0.4-1.6,0c-1.4,1.7-2.8,3.3-4.1,5c-0.4,0.5-0.5,1.1,0,1.6
		C319.2,31.7,320,31.8,320.4,31.3L320.4,31.3z"/>
</g>
<g>
	<path class="st0" d="M362.3,24.1c-1.4,1.7-2.8,3.3-4.1,5c0.5,0,1.1,0,1.6,0c-1.4-1.7-2.8-3.3-4.1-5c-0.4-0.5-1.2-0.4-1.6,0
		c-0.5,0.5-0.4,1.1,0,1.6c1.4,1.7,2.8,3.3,4.1,5c0.4,0.4,1.2,0.4,1.6,0c1.4-1.7,2.8-3.3,4.1-5c0.4-0.5,0.5-1.1,0-1.6
		C363.5,23.7,362.7,23.7,362.3,24.1L362.3,24.1z"/>
</g>
<g>
	<path class="st0" d="M356,35.6c-0.4,0.7-0.8,1.4-1.2,2c-0.1,0.1-0.2,0.3-0.3,0.4c-0.1,0.2,0,0.1,0,0c-0.1,0.1-0.1,0.2-0.2,0.3
		c-0.3,0.3-0.5,0.6-0.8,0.9c-0.5,0.6-1.1,1.1-1.6,1.6c-0.5,0.4-1.1,0.8-1.8,1.3c-1.4,0.9-2.5,1.4-4,1.8c-0.8,0.2-1.6,0.4-2.4,0.5
		c0.2,0,0,0,0,0c-0.1,0-0.2,0-0.3,0c-0.2,0-0.4,0-0.6,0c-0.4,0-0.8,0-1.3,0c-0.8,0-1.5,0-2.3-0.1c-0.2,0,0.3,0-0.1,0
		c-0.1,0-0.2,0-0.3,0c-0.2,0-0.3-0.1-0.5-0.1c-0.4-0.1-0.7-0.2-1.1-0.3c-0.7-0.2-1.4-0.4-2-0.7c0,0-0.3-0.1-0.1,0
		c-0.1,0-0.1-0.1-0.2-0.1c-0.2-0.1-0.3-0.1-0.5-0.2c-0.3-0.2-0.7-0.3-1-0.5c-0.6-0.3-1.2-0.7-1.8-1.2c-0.1,0-0.4-0.3-0.2-0.2
		c-0.1-0.1-0.3-0.2-0.4-0.3c-0.3-0.2-0.6-0.5-0.8-0.7c-0.5-0.5-1-1-1.5-1.6c-0.1-0.1-0.2-0.3-0.3-0.4c0.1,0.2-0.1-0.2-0.2-0.2
		c-0.2-0.3-0.4-0.6-0.6-0.9c-0.4-0.7-0.8-1.4-1.2-2.1c0-0.1-0.1-0.1-0.1-0.2c0,0-0.2-0.4-0.1-0.2c-0.1-0.2-0.2-0.4-0.2-0.6
		c-0.1-0.4-0.3-0.8-0.4-1.2c-0.2-0.8-0.4-1.6-0.5-2.4c0,0,0-0.2,0,0c0-0.1,0-0.2,0-0.4c0-0.2,0-0.4-0.1-0.6c0-0.4,0-0.9,0-1.3
		c0-0.6-0.5-1.2-1.1-1.1c-0.6,0-1.1,0.5-1.1,1.1c0,6.4,3.3,12.4,8.7,15.8c5.6,3.6,13,3.9,18.9,0.7c3.3-1.8,6.1-4.5,7.8-7.9
		c0.3-0.5,0.1-1.2-0.4-1.6C357.1,34.9,356.3,35,356,35.6L356,35.6z"/>
</g>
<g>
	<path class="st0" d="M327.1,19.8c0.2-0.3,0.4-0.6,0.6-0.9c0.1-0.2,0.2-0.3,0.3-0.5c0.1-0.1,0.1-0.2,0.2-0.3c0,0,0.2-0.3,0.1-0.1
		c0.5-0.6,1-1.2,1.5-1.7c0.3-0.3,0.5-0.5,0.8-0.7c0.1-0.1,0.3-0.2,0.4-0.4c0.1-0.1,0.2-0.1,0.3-0.2c0.2-0.1-0.1,0.1,0.1-0.1
		c0.6-0.5,1.3-0.9,1.9-1.3c0.3-0.2,0.6-0.4,1-0.5c0.2-0.1,0.3-0.2,0.5-0.2c0,0,0.3-0.1,0.2-0.1c-0.1,0,0,0,0.1,0
		c0.1,0,0.1-0.1,0.2-0.1c0.7-0.3,1.5-0.5,2.2-0.7c1.6-0.4,2.9-0.5,4.6-0.5c0.4,0,0.7,0,1.1,0.1c0.2,0,0.3,0,0.5,0.1c0,0,0.2,0,0,0
		c0.1,0,0.2,0,0.4,0.1c0.7,0.1,1.4,0.3,2.1,0.5c0.3,0.1,0.7,0.2,1,0.3c0.2,0.1,0.3,0.1,0.5,0.2c0.1,0,0.2,0.1,0.2,0.1
		c0.3,0.1-0.1-0.1,0.1,0c0.6,0.3,1.3,0.6,1.9,1c0.6,0.4,1.2,0.7,1.7,1.2c0.3,0.2-0.2-0.1,0.1,0.1c0.1,0,0.1,0.1,0.2,0.1
		c0.1,0.1,0.3,0.2,0.4,0.3c0.3,0.2,0.5,0.5,0.8,0.7c0.5,0.5,1,1,1.4,1.5c0.1,0.1,0.1,0.1,0.2,0.2c0.1,0.2-0.2-0.2,0,0
		c0.1,0.1,0.2,0.3,0.3,0.4c0.2,0.3,0.4,0.6,0.6,0.9c0.4,0.7,0.8,1.3,1.1,2c0,0.1,0.1,0.2,0.1,0.3c0.1,0.3-0.1-0.2,0,0.1
		c0.1,0.2,0.1,0.4,0.2,0.6c0.1,0.4,0.3,0.8,0.4,1.2c0.2,0.8,0.4,1.5,0.5,2.3c0.1,0.3,0-0.2,0,0.1c0,0.1,0,0.2,0,0.3
		c0,0.2,0,0.4,0.1,0.6c0,0.4,0,0.8,0,1.3c0,0.6,0.5,1.2,1.1,1.1c0.6,0,1.1-0.5,1.1-1.1c0-6.3-3.2-12.1-8.4-15.6
		c-5.5-3.7-12.7-4.1-18.6-1.3c-3.4,1.6-6.2,4.3-8.1,7.5c-0.3,0.5-0.1,1.2,0.4,1.6C326,20.5,326.8,20.3,327.1,19.8L327.1,19.8z"/>
</g>
</svg>
