
        <svg xmlns="http://www.w3.org/2000/svg" xmlns:xlink="http://www.w3.org/1999/xlink" version="1.1" width="3162.087772057699" height="693.764122075619" viewBox="0 -72.93949742596465 3162.087772057699 693.764122075619">
			
			<g transform="scale(8.10438860288496) translate(10, 10)">
				<defs id="SvgjsDefs1361"/><g id="SvgjsG1362" featureKey="symbolFeature-0" transform="matrix(0.6289279043327438,0,0,0.6289279043327438,-5.031419036115226,-12.14463952166372)" fill="#fff"><path xmlns="http://www.w3.org/2000/svg" d="M91.928,91.604L78.977,36.341C78.646,34.885,77.494,34,76,34H52v-9c4.373-0.889,8-5.375,8-10c0-5.282-4.711-10-10-10  c-5.29,0-10,4.718-10,10c0,4.625,3.626,9.111,8,10v9H24c-1.491,0-2.643,0.883-2.974,2.341L8.074,91.604  c-0.194,0.849-0.002,1.709,0.522,2.369C9.119,94.626,9.92,95,10.792,95h78.415c0.873,0,1.672-0.374,2.195-1.027  C91.928,93.318,92.119,92.455,91.928,91.604z M44,15c0-3.308,2.691-6,6-6c3.309,0,6,2.692,6,6s-2.691,6-6,6  C46.691,21,44,18.307,44,15z M12,91l13-53h50l13,53H12z"/></g><g id="SvgjsG1363" featureKey="nameFeature-0" transform="matrix(1.355462238746663,0,0,1.355462238746663,71.83511602916947,-6.434280215548844)" fill="#fff"><path d="M8.2422 40 l-7.3828 -28.223 l6.0938 0 l5.5078 21.367 l6.3086 -21.367 l4.9414 0 l6.2695 21.367 l5.5664 -21.367 l6.0742 0 l-7.3828 28.223 l-7.5391 0 l-5.4688 -17.441 l-5.4492 17.441 l-7.5391 0 z M69.560484375 40 l-2.0508 -5.8203 l-11.855 0 l-2.0508 5.8203 l-5.9961 0 l10.391 -28.223 l7.168 0 l10.391 28.223 l-5.9961 0 z M57.373484375000004 29.277 l8.418 0 l-4.1992 -11.973 z M105.50759375 11.777000000000001 l-9.2773 14.707 l0 13.516 l-5.8789 0 l0 -13.379 l-9.3359 -14.844 l6.4844 0 l5.7617 9.6094 l5.7813 -9.6094 l6.4648 0 z M130.654328125 16.934 l-10.742 0 l0 6.4063 l9.2773 0 l0 5.0977 l-9.2773 0 l0 11.563 l-5.8984 0 l0 -28.223 l16.641 0 l0 5.1563 z M159.08196875 40 l-2.0508 -5.8203 l-11.855 0 l-2.0508 5.8203 l-5.9961 0 l10.391 -28.223 l7.168 0 l10.391 28.223 l-5.9961 0 z M146.89496875 29.277 l8.418 0 l-4.1992 -11.973 z M183.232078125 40.39063 c-6.0547 0 -10.781 -2.9102 -11.641 -8.2031 l6.0547 -1.3867 c0.39063 3.1641 2.7148 4.8047 5.8203 4.8047 c2.3828 0 4.2773 -1.0547 4.2578 -3.4375 c-0.019531 -2.6563 -3.1445 -3.4961 -6.582 -4.5508 c-4.1406 -1.2891 -8.5742 -2.8125 -8.5742 -8.0078 c0 -5.2539 4.2969 -8.2227 9.9609 -8.2227 c4.9609 0 9.9609 2.0117 11.094 7.4219 l-5.6641 1.4063 c-0.52734 -2.8125 -2.4219 -4.043 -5.0781 -4.043 c-2.3633 0 -4.375 0.97656 -4.375 3.3008 c0 2.168 2.7734 2.8906 5.9766 3.8477 c4.2578 1.2891 9.2969 2.9297 9.2969 8.5547 c0 5.9961 -5.0195 8.5156 -10.547 8.5156 z M220.098125 11.777000000000001 l0 5.1563 l-6.6992 0 l0 23.066 l-5.8008 0 l0 -23.066 l-6.7383 0 l0 -5.1563 l19.238 0 z"/></g>
			</g>
		</svg>
	